<svg width="24" height="25" viewBox="0 0 24 25" fill="none" xmlns="http://www.w3.org/2000/svg">
<path d="M18.9307 20.7139C17.2449 20.7139 15.5167 20.2918 13.7462 19.4476C11.9757 18.6033 10.3308 17.4183 8.8115 15.8926C7.29233 14.3671 6.11058 12.7223 5.26625 10.9581C4.42208 9.19395 4 7.46895 4 5.78312C4 5.47762 4.1 5.22303 4.3 5.01937C4.5 4.8157 4.75 4.71387 5.05 4.71387H7.523C7.79483 4.71387 8.032 4.79945 8.2345 4.97062C8.43717 5.14178 8.57442 5.36137 8.64625 5.62937L9.14225 8.01387C9.18842 8.29337 9.18008 8.53762 9.11725 8.74662C9.05442 8.95562 8.9435 9.12678 8.7845 9.26012L6.5905 11.3061C7.00067 12.051 7.45417 12.743 7.951 13.3821C8.44783 14.0213 8.97767 14.6267 9.5405 15.1984C10.1212 15.7792 10.7462 16.3193 11.4155 16.8186C12.0847 17.318 12.8193 17.7895 13.6193 18.2331L15.7578 16.0561C15.9206 15.8805 16.1036 15.7648 16.3068 15.7091C16.5099 15.6533 16.7346 15.642 16.9807 15.6754L19.0845 16.1061C19.3563 16.1728 19.5769 16.3097 19.7462 16.5169C19.9154 16.7239 20 16.9614 20 17.2294V19.6639C20 19.9639 19.8982 20.2139 19.6945 20.4139C19.4908 20.6139 19.2362 20.7139 18.9307 20.7139ZM6.12125 10.3676L8.0405 8.60237C8.1045 8.55103 8.14617 8.48053 8.1655 8.39087C8.18467 8.30103 8.18142 8.2177 8.15575 8.14087L7.7115 6.02162C7.68583 5.91895 7.641 5.84203 7.577 5.79087C7.51283 5.73953 7.4295 5.71387 7.327 5.71387H5.275C5.198 5.71387 5.13392 5.73953 5.08275 5.79087C5.03142 5.84203 5.00575 5.90612 5.00575 5.98312C5.02492 6.66645 5.132 7.37987 5.327 8.12337C5.52183 8.86703 5.78658 9.61512 6.12125 10.3676ZM14.5712 18.7024C15.2467 19.037 15.9669 19.2845 16.7318 19.4446C17.4964 19.605 18.1627 19.6909 18.7307 19.7024C18.8077 19.7024 18.8718 19.6767 18.923 19.6254C18.9743 19.574 19 19.51 19 19.4331V17.4254C19 17.3229 18.9743 17.2395 18.923 17.1754C18.8718 17.1114 18.7949 17.0665 18.6923 17.0409L16.8423 16.6619C16.7654 16.6362 16.6982 16.633 16.6405 16.6524C16.5827 16.6715 16.5218 16.7132 16.4578 16.7774L14.5712 18.7024Z" fill="#FDFDFE"/>
</svg>
