<svg width="24" height="25" viewBox="0 0 24 25" fill="none" xmlns="http://www.w3.org/2000/svg">
<path d="M12.0036 12.5965C12.4487 12.5965 12.8286 12.438 13.1433 12.121C13.4581 11.804 13.6156 11.4229 13.6156 10.9777C13.6156 10.5326 13.457 10.1526 13.1398 9.83772C12.8228 9.52306 12.4417 9.36572 11.9966 9.36572C11.5514 9.36572 11.1715 9.52422 10.8568 9.84122C10.542 10.1582 10.3846 10.5393 10.3846 10.9845C10.3846 11.4296 10.5431 11.8096 10.8603 12.1245C11.1773 12.4391 11.5584 12.5965 12.0036 12.5965ZM12.0001 20.5427C13.8796 18.9067 15.3655 17.2429 16.4578 15.5512C17.5501 13.8596 18.0963 12.3965 18.0963 11.162C18.0963 9.33247 17.5171 7.82247 16.3588 6.63197C15.2005 5.44164 13.7476 4.84647 12.0001 4.84647C10.2526 4.84647 8.79964 5.44164 7.64131 6.63197C6.48298 7.82247 5.90381 9.33247 5.90381 11.162C5.90381 12.3965 6.44998 13.8596 7.54231 15.5512C8.63464 17.2429 10.1206 18.9067 12.0001 20.5427ZM12.0001 21.885C9.65006 19.8068 7.87989 17.8686 6.68956 16.0705C5.49906 14.2725 4.90381 12.6363 4.90381 11.162C4.90381 9.04647 5.59264 7.30156 6.97031 5.92722C8.34781 4.55289 10.0244 3.86572 12.0001 3.86572C13.9757 3.86572 15.6523 4.55289 17.0298 5.92722C18.4075 7.30156 19.0963 9.04647 19.0963 11.162C19.0963 12.6363 18.5011 14.2725 17.3106 16.0705C16.1202 17.8686 14.3501 19.8068 12.0001 21.885Z" fill="#FDFDFE"/>
</svg>
