<svg width="103" height="24" viewBox="0 0 103 24" fill="none" xmlns="http://www.w3.org/2000/svg">
<g clip-path="url(#clip0_117_15)">
<path d="M29.7179 12.4812C29.7384 12.0713 29.7384 11.6604 29.7179 11.2505H7.2538C7.24907 11.3526 7.24493 11.4554 7.24256 11.5582H2.53652L2.53416 11.712H0V12.0197H2.53356L2.53711 12.1735H7.24256C7.24493 12.2769 7.24848 12.3791 7.2544 12.4812H13.7037C13.6793 12.2771 13.667 12.0716 13.667 11.8658H23.1383C23.1383 12.0745 23.1265 12.28 23.1016 12.4812H29.7179ZM29.6711 10.6351H22.9897C22.9378 10.4257 22.8725 10.2201 22.7944 10.0197H14.0127C13.9352 10.2191 13.8695 10.424 13.8174 10.6351H7.29998C7.31063 10.5323 7.32247 10.4295 7.33549 10.3274H2.62946L2.64959 10.1772H0V9.86954H2.69635L2.72358 9.712H7.42962C7.44737 9.60923 7.4675 9.50646 7.48881 9.40431H29.4835C29.5663 9.80738 29.6297 10.2178 29.6711 10.6351ZM29.3396 8.78892H22.1C21.9293 8.56737 21.7405 8.36149 21.5359 8.17354H15.2706C15.0664 8.36185 14.877 8.56738 14.7065 8.78892H7.63266C7.65929 8.68615 7.68771 8.58338 7.7173 8.48123H3.01127L3.06336 8.30831H0V8H3.16222L3.20839 7.86523H7.91443C7.94994 7.76185 7.98783 7.65969 8.0269 7.55754H28.9448C29.0975 7.95754 29.2295 8.36923 29.3396 8.78892ZM28.6902 6.94277H8.28144C8.32761 6.83938 8.37497 6.73723 8.4241 6.63508H3.71866L3.80212 6.46523H0V6.15754H3.96254L4.03772 6.01969H8.74375C8.80117 5.91631 8.86037 5.81354 8.92075 5.712H28.0509C28.2865 6.10708 28.5008 6.51815 28.6902 6.94277ZM7.29998 13.0966H29.6717C29.6297 13.5138 29.5663 13.9249 29.4835 14.3274H22.5055C22.615 14.1305 22.7121 13.9249 22.795 13.712H14.0116C14.0944 13.9249 14.1909 14.1305 14.3004 14.3274H7.48822C7.46715 14.2251 7.44742 14.1225 7.42902 14.0197H2.72358C2.71394 13.9656 2.70466 13.9115 2.69576 13.8572H0V13.5495H2.64899C2.6422 13.5012 2.63569 13.4528 2.62946 13.4043H7.33549C7.32236 13.3019 7.31052 13.1993 7.29998 13.0966ZM7.63206 14.9428H29.339C29.2295 15.3631 29.0975 15.7735 28.9448 16.1735H20.6977C20.9976 16.0005 21.2787 15.7941 21.5359 15.5582H15.2706C15.5279 15.7941 15.8089 16.0005 16.1088 16.1735H8.0269C7.98804 16.0715 7.95054 15.9689 7.91443 15.8658H3.20839L3.15748 15.7175H0V15.4098H3.05922C3.04307 15.3568 3.02729 15.3037 3.01186 15.2505H7.7173C7.68771 15.1483 7.65929 15.0462 7.63206 14.9428ZM8.28144 16.7889H28.6902C28.501 17.2121 28.2875 17.6231 28.0509 18.0197H8.92075C8.86003 17.9181 8.80083 17.8155 8.74316 17.712H4.03772C4.00812 17.6591 3.97912 17.6062 3.9507 17.5526H0V17.2449H3.79147L3.71866 17.0972H8.42469C8.3755 16.9954 8.32774 16.8928 8.28144 16.7895V16.7889ZM10.0159 19.5582C10.1029 19.6628 10.1923 19.7649 10.2834 19.8658H26.6882C27.0376 19.4788 27.3614 19.0676 27.6573 18.6351H9.3144C9.38543 18.7391 9.45765 18.8418 9.53224 18.9428H4.8262L4.94341 19.0997H0V19.4074H5.18552C5.22636 19.4585 5.2678 19.5083 5.30983 19.5582H10.0159ZM11.9794 21.4043C12.1232 21.5108 12.2694 21.6135 12.4174 21.712H24.5543C25.0991 21.3483 25.6128 20.9365 26.0898 20.4812H10.8825C10.992 20.5858 11.1039 20.6886 11.2175 20.7889H6.51149C6.57543 20.8455 6.63995 20.9009 6.70506 20.9551H0V21.2628H7.08687C7.14844 21.3108 7.21118 21.3582 7.27393 21.4043H11.98H11.9794ZM16.1331 23.3022C16.892 23.4702 17.6787 23.5582 18.4855 23.5582C20.2934 23.5582 22.0012 23.1151 23.5142 22.3274H13.4569C13.6676 22.4369 13.8813 22.5397 14.0986 22.6351H9.39253C9.47659 22.672 9.56124 22.7083 9.64589 22.7434H0V23.0511H10.4924C11.5324 23.3809 12.6364 23.5582 13.7801 23.5582C14.5869 23.5582 15.3742 23.4702 16.1331 23.3022ZM9.3144 5.09662H27.6573C27.3614 4.66407 27.0376 4.25287 26.6882 3.86585H10.2834C10.1923 3.96677 10.1029 4.06892 10.0153 4.17354H5.30983L5.20564 4.30031H0V4.608H4.96176C4.91618 4.66769 4.87119 4.728 4.82679 4.78892H9.53224C9.45765 4.89046 9.38543 4.99323 9.3144 5.09662ZM10.8819 3.25046H26.0892C25.6124 2.79523 25.0989 2.38346 24.5543 2.01969H12.4174C12.2694 2.11877 12.1232 2.22154 11.9794 2.32738H7.27393C7.20882 2.376 7.1437 2.42462 7.07977 2.47446H0V2.78215H6.69855C6.63581 2.83508 6.57365 2.88862 6.51209 2.94277H11.2175C11.1039 3.04308 10.992 3.14585 10.8819 3.25046ZM13.4575 1.40431H23.5148C21.9537 0.592268 20.2317 0.1708 18.4861 0.173538C17.6787 0.173538 16.892 0.262154 16.1331 0.430154C15.3596 0.2592 14.5709 0.17319 13.7801 0.173538C12.5169 0.173538 11.3028 0.390154 10.1692 0.788923H0V1.09662H14.0986C13.8818 1.19214 13.668 1.29475 13.4575 1.40431ZM65.8537 0C66.2426 0 66.5481 0.100923 66.7701 0.302769C67.0015 0.495385 67.1169 0.764308 67.1169 1.11138C67.1169 1.45785 67.0015 1.73169 66.7701 1.93354C66.5481 2.12615 66.2426 2.22277 65.8537 2.22277C65.4654 2.22277 65.1552 2.12615 64.9237 1.93354C64.7018 1.73169 64.5905 1.45785 64.5905 1.11138C64.5905 0.764923 64.7018 0.496 64.9237 0.302769C65.1552 0.100923 65.4654 0 65.8537 0ZM66.9364 3.56431V9.84185C66.9364 10.2462 67.0015 10.5206 67.1311 10.6646C67.2697 10.8092 67.5011 10.8812 67.8249 10.8812V11.184C67.566 11.1708 67.3069 11.1612 67.0477 11.1551C66.6916 11.1357 66.3351 11.1261 65.9786 11.1262C65.6181 11.1262 65.2523 11.136 64.8823 11.1551C64.6046 11.1614 64.3269 11.1711 64.0494 11.184V10.8812C64.3732 10.8812 64.5999 10.8092 64.7296 10.6646C64.8681 10.5206 64.938 10.2462 64.938 9.84185V5.296C64.938 4.86338 64.8728 4.54523 64.7432 4.344C64.623 4.13231 64.3916 4.02646 64.0494 4.02646V3.72308C64.3454 3.752 64.6325 3.76615 64.9101 3.76615C65.2985 3.76615 65.6595 3.752 65.9928 3.72308C66.335 3.68492 66.6499 3.632 66.9364 3.56431Z" fill="#3657C3"/>
<path fill-rule="evenodd" clip-rule="evenodd" d="M70.8434 4.8886V3.56429C70.5569 3.63198 70.2419 3.68491 69.8998 3.72306C69.557 3.75198 69.196 3.76614 68.8165 3.76614C68.5389 3.76614 68.2524 3.75198 67.9558 3.72306V4.02644C68.2891 4.02644 68.5205 4.13229 68.6502 4.34398C68.7798 4.54583 68.8443 4.86337 68.8443 5.29598V12.512C68.8443 12.8966 68.7798 13.1563 68.6502 13.2911C68.53 13.4258 68.3169 13.4929 68.0115 13.4929V13.7963L68.7473 13.7532C69.085 13.7434 69.4228 13.7385 69.7607 13.7384C70.2325 13.7384 70.677 13.7434 71.0932 13.7526C71.5188 13.7723 71.8521 13.7864 72.093 13.7957V13.4929C71.7041 13.4929 71.3986 13.416 71.1766 13.2621C70.9546 13.1181 70.8434 12.8197 70.8434 12.3674V10.9212C70.9653 11.0271 71.1086 11.1144 71.2737 11.184C71.5697 11.3194 71.8982 11.3864 72.2593 11.3864C72.75 11.3864 73.1893 11.2948 73.5782 11.112C73.9735 10.9312 74.3212 10.6541 74.5916 10.304C74.8781 9.93844 75.096 9.49106 75.2439 8.96183C75.4014 8.4326 75.4801 7.81721 75.4801 7.11444C75.4801 6.31629 75.3688 5.65229 75.1469 5.12306C74.9249 4.58398 74.6283 4.18521 74.2583 3.92552C73.8886 3.65613 73.4466 3.51466 72.9951 3.52121C72.4582 3.52121 71.9864 3.66521 71.5792 3.95383C71.2589 4.17844 71.0138 4.48983 70.8434 4.88921V4.8886ZM70.8434 5.3846V10.616C70.9203 10.7108 71.0133 10.7895 71.121 10.8523C71.2968 10.9483 71.4957 10.9963 71.7183 10.9963C72.1344 10.9963 72.4629 10.8523 72.7039 10.5637C72.9442 10.2652 73.1153 9.85168 73.2171 9.32244C73.3284 8.78398 73.384 8.14398 73.384 7.40306C73.384 6.57598 73.3331 5.92614 73.2313 5.45475C73.1295 4.98337 72.9904 4.64675 72.8146 4.44491C72.6388 4.24244 72.4262 4.14152 72.1758 4.14152C71.8432 4.14152 71.5377 4.27691 71.2601 4.54583C71.0511 4.75506 70.912 5.03506 70.8434 5.3846Z" fill="#3657C3"/>
<path d="M78.6671 3.52114C79.056 3.52114 79.3934 3.57406 79.6805 3.6799C79.9765 3.7759 80.1896 3.87252 80.3193 3.96852C80.6336 4.19006 80.8283 4.04544 80.9023 3.53529H81.1936C81.1752 3.80483 81.161 4.13714 81.1521 4.53098C81.1427 4.91621 81.1379 5.43067 81.1379 6.0756H80.8467C80.7992 5.71477 80.7106 5.3611 80.5827 5.02206C80.4648 4.69301 80.2692 4.40011 80.0138 4.17037C79.7729 3.94883 79.4586 3.83806 79.0696 3.83806C78.8015 3.83806 78.5748 3.92052 78.3895 4.08421C78.2042 4.23806 78.1119 4.4639 78.1119 4.76237C78.1119 5.05098 78.1953 5.30575 78.3617 5.52729C78.5286 5.73898 78.7411 5.94575 79.0004 6.1476C79.2685 6.34021 79.5462 6.54698 79.8333 6.7679C80.1387 7.00852 80.4163 7.24914 80.6661 7.48975C80.9056 7.70739 81.1075 7.96611 81.2628 8.25467C81.4114 8.53344 81.4854 8.86514 81.4854 9.25037C81.4854 9.68298 81.3646 10.0627 81.1243 10.3901C80.8834 10.7076 80.5643 10.9531 80.1665 11.1261C79.7776 11.2996 79.3425 11.3864 78.8619 11.3864C78.6094 11.3893 78.3575 11.3602 78.1119 11.2996C77.9194 11.2498 77.7331 11.1771 77.5566 11.083C77.4364 11.0251 77.3204 10.9722 77.2097 10.9242C77.1153 10.8702 77.0178 10.8221 76.9179 10.7802C76.8255 10.7513 76.7421 10.7845 76.6681 10.8811C76.6036 10.9771 76.5527 11.1119 76.5154 11.2848H76.2241C76.2425 10.9771 76.2567 10.6018 76.2656 10.1593C76.275 9.71683 76.2798 9.12975 76.2798 8.39929H76.571C76.6266 8.91867 76.7285 9.38021 76.8765 9.7839C77.0244 10.179 77.2233 10.4916 77.4731 10.7224C77.7324 10.9439 78.0562 11.0547 78.4451 11.0547C78.6026 11.0547 78.7553 11.0208 78.9033 10.9531C79.0513 10.8854 79.1715 10.7747 79.2644 10.6208C79.3662 10.467 79.4171 10.2701 79.4171 10.0301C79.4171 9.60606 79.2827 9.25467 79.014 8.9759C78.7553 8.69714 78.4221 8.39375 78.0148 8.06698C77.7188 7.81652 77.4364 7.5716 77.1683 7.33098C76.9196 7.09447 76.7046 6.82241 76.5296 6.52298C76.3605 6.2156 76.2742 5.86655 76.2798 5.51252C76.2798 5.0799 76.3905 4.71437 76.6124 4.4159C76.839 4.11433 77.142 3.88439 77.4874 3.7519C77.8627 3.59699 78.2633 3.51864 78.6671 3.52114ZM95.8995 3.6799C95.6586 3.57406 95.3442 3.52114 94.9553 3.52114C94.52 3.51654 94.0905 3.62573 93.7063 3.83867C93.3269 4.04052 93.0261 4.38206 92.8036 4.86329V3.56483C92.5171 3.6319 92.2021 3.68483 91.86 3.72298C91.5267 3.7519 91.1656 3.76606 90.7773 3.76606C90.4997 3.76606 90.2126 3.7519 89.9166 3.72298V4.02637C90.2588 4.02637 90.4902 4.13221 90.6104 4.3439C90.74 4.54575 90.8045 4.86329 90.8045 5.2959V9.84175C90.8045 10.2461 90.7353 10.5205 90.5968 10.6645C90.4671 10.8091 90.2404 10.8811 89.9166 10.8811V11.1839C90.1941 11.171 90.4718 11.1613 90.7495 11.155C91.1101 11.136 91.4711 11.1263 91.8322 11.1261C92.156 11.1261 92.4709 11.1359 92.7757 11.155C93.0907 11.1648 93.3221 11.1747 93.4701 11.1839V10.8811C93.2298 10.8811 93.0581 10.8091 92.9563 10.6645C92.8545 10.5205 92.8036 10.2461 92.8036 9.84175V5.83006C92.8036 5.51252 92.864 5.22883 92.9841 4.97837C93.1138 4.71867 93.2801 4.51683 93.4837 4.37283C93.6792 4.23117 93.912 4.15554 94.1503 4.15621C94.3634 4.15621 94.5202 4.20914 94.6221 4.31498C94.7333 4.41098 94.8073 4.55067 94.8446 4.73344C94.8813 4.90637 94.8997 5.11314 94.8997 5.35375V9.84175C94.8997 10.2461 94.8488 10.5205 94.747 10.6645C94.6546 10.8091 94.4835 10.8811 94.2337 10.8811V11.1839C94.4001 11.1747 94.6451 11.1648 94.9695 11.155C95.6261 11.116 96.2842 11.116 96.9407 11.155C97.2829 11.1648 97.5374 11.1747 97.7038 11.1839V10.8811C97.4078 10.8811 97.1994 10.8091 97.0793 10.6645C96.9591 10.5205 96.8987 10.2461 96.8987 9.84175V5.89406L96.8981 5.84914L96.8958 5.70329C96.917 5.46206 96.9791 5.22665 97.0793 5.0079C97.2089 4.7476 97.3752 4.54083 97.5789 4.38698C97.7825 4.23314 98.0051 4.15621 98.2454 4.15621C98.4857 4.15621 98.6621 4.20914 98.7728 4.31498C98.893 4.41098 98.9717 4.55067 99.009 4.73344C99.0552 4.90637 99.0783 5.11314 99.0783 5.35375V9.84175C99.0783 10.2461 99.0274 10.5205 98.9256 10.6645C98.8332 10.8091 98.6621 10.8811 98.4117 10.8811V11.1839C98.5787 11.1747 98.8237 11.1648 99.1475 11.155C99.4757 11.1356 99.8044 11.126 100.133 11.1261C100.476 11.1261 100.823 11.1359 101.174 11.155C101.526 11.1648 101.79 11.1747 101.966 11.1839V10.8811C101.642 10.8811 101.411 10.8091 101.271 10.6645C101.142 10.5205 101.077 10.2461 101.077 9.84175V5.9599C101.077 5.47867 101.045 5.09406 100.98 4.80544C100.915 4.50698 100.809 4.26698 100.661 4.08421C100.513 3.91067 100.318 3.77652 100.078 3.6799C99.8372 3.57406 99.5222 3.52114 99.1339 3.52114C98.6621 3.52114 98.2176 3.62206 97.8014 3.8239C97.4025 4.02206 97.0793 4.3999 96.8312 4.95744C96.8227 4.9065 96.8128 4.85581 96.8016 4.80544C96.7371 4.50698 96.6306 4.26698 96.4826 4.08421C96.3346 3.91067 96.1398 3.77652 95.8995 3.6799ZM88.8274 9.61098V3.56421C88.5403 3.6319 88.226 3.68483 87.8832 3.72298C87.5506 3.7519 87.1895 3.76606 86.8006 3.76606C86.5229 3.76606 86.2364 3.7519 85.9399 3.72298V4.02637C86.2826 4.02637 86.5141 4.13221 86.6342 4.3439C86.7639 4.54575 86.8284 4.86329 86.8284 5.2959V9.07683C86.8284 9.39437 86.7639 9.68298 86.6342 9.94267C86.5243 10.1804 86.3568 10.3844 86.1482 10.5347C85.954 10.6791 85.7204 10.755 85.4817 10.7513C85.2508 10.7513 85.075 10.7027 84.9543 10.6067C84.8295 10.4932 84.7421 10.3419 84.7045 10.1741C84.6652 9.96489 84.6465 9.75209 84.6488 9.53898V3.56421C84.3623 3.6319 84.0474 3.68483 83.7052 3.72298C83.372 3.7519 83.0109 3.76606 82.6226 3.76606C82.3449 3.76606 82.0578 3.7519 81.7618 3.72298V4.02637C82.104 4.02637 82.3355 4.13221 82.4556 4.3439C82.5853 4.54575 82.6498 4.86329 82.6498 5.2959V8.94698C82.6498 9.41837 82.6823 9.8036 82.7475 10.1014C82.812 10.3999 82.9233 10.6405 83.0801 10.8233C83.2192 10.987 83.4087 11.1218 83.6496 11.2276C83.8899 11.3328 84.2048 11.3864 84.5938 11.3864C85.075 11.3864 85.5095 11.2848 85.8984 11.083C86.2962 10.8713 86.6064 10.5248 86.8284 10.0442V11.3427C87.1385 11.2633 87.4542 11.2102 87.7726 11.1839C88.1058 11.155 88.4663 11.1408 88.8552 11.1408C89.1423 11.1408 89.4288 11.155 89.7159 11.1839V10.8811C89.3827 10.8811 89.1512 10.7802 89.0216 10.5778C88.8919 10.3661 88.8274 10.0442 88.8274 9.6116V9.61098Z" fill="#3657C3"/>
<path fill-rule="evenodd" clip-rule="evenodd" d="M61.9752 3.91073C61.4661 3.65104 60.8736 3.52119 60.1982 3.52119C59.5411 3.52119 58.9533 3.65104 58.4353 3.91073C57.9262 4.17043 57.5237 4.58889 57.2277 5.16612C56.9406 5.74335 56.7968 6.50827 56.7968 7.46089C56.7968 8.4135 56.9406 9.17781 57.2272 9.75566C57.5231 10.323 57.9257 10.7366 58.4347 10.9963C58.9533 11.256 59.5411 11.3864 60.1982 11.3864C60.8736 11.3864 61.4661 11.256 61.9752 10.9963C62.4837 10.7366 62.8821 10.323 63.1686 9.75566C63.4557 9.17843 63.5989 8.4135 63.5989 7.46089C63.5989 6.50827 63.4557 5.74396 63.1686 5.16612C62.8821 4.58889 62.4837 4.17043 61.9752 3.91073ZM59.2682 4.67566C59.518 4.09843 59.8282 3.80981 60.1982 3.80981C60.5776 3.80981 60.8878 4.09843 61.1281 4.67566C61.3779 5.24304 61.5028 6.17166 61.5028 7.46089C61.5028 8.75012 61.3779 9.67873 61.1281 10.2461C60.8878 10.8135 60.5776 11.0978 60.1982 11.0978C59.8282 11.0978 59.518 10.8135 59.2682 10.2461C59.0184 9.67873 58.8935 8.75012 58.8935 7.46089C58.8935 6.17166 59.0178 5.24304 59.2682 4.67566ZM52.2701 13.8972C51.6959 13.8972 51.1827 13.8443 50.7293 13.7384C50.2853 13.6424 49.9337 13.4886 49.6744 13.2769C49.4246 13.0744 49.2997 12.8246 49.2997 12.5261C49.2997 12.2277 49.4287 11.9587 49.688 11.7181C49.9473 11.4873 50.3315 11.3046 50.8406 11.1698L50.9649 11.4006C50.8059 11.5247 50.6737 11.6819 50.5765 11.8621C50.5026 12.0357 50.4653 12.2135 50.4653 12.3963C50.4653 12.8006 50.6411 13.1083 50.9933 13.3193C51.3544 13.5409 51.8398 13.6517 52.4507 13.6517C52.8668 13.6517 53.2374 13.5938 53.5612 13.4787C53.8944 13.363 54.1531 13.1895 54.3384 12.9593C54.5332 12.728 54.6302 12.4443 54.6302 12.1077C54.6302 11.819 54.5284 11.5735 54.3248 11.3717C54.1212 11.179 53.7139 11.083 53.103 11.083H52.2423C51.8635 11.083 51.5296 11.04 51.2431 10.9532C50.9649 10.867 50.7476 10.7317 50.5902 10.5489C50.4333 10.3569 50.3546 10.1163 50.3546 9.82766C50.3546 9.42335 50.5073 9.06766 50.8127 8.75935C51.0519 8.51812 51.3822 8.28858 51.8037 8.07135C51.5266 8.03553 51.2544 7.96635 50.9927 7.86519C50.5765 7.7015 50.248 7.45104 50.0077 7.11443C49.7668 6.77781 49.6466 6.34519 49.6466 5.81596C49.6466 5.28673 49.7668 4.8535 50.0077 4.51689C50.248 4.17043 50.5765 3.91996 50.9933 3.76612C51.4094 3.60304 51.8812 3.52119 52.4086 3.52119C52.9367 3.52119 53.4085 3.60304 53.8246 3.76673C54.0993 3.86766 54.3349 4.01104 54.5332 4.19566C54.651 4.01904 54.7942 3.8615 54.9629 3.72304C55.2778 3.47319 55.6158 3.34766 55.9763 3.34766C56.2723 3.34766 56.4949 3.43443 56.6429 3.60796C56.8004 3.77104 56.8791 3.98766 56.8791 4.25719C56.8791 4.54581 56.8045 4.76181 56.6565 4.90643C56.5085 5.04181 56.3422 5.10889 56.1569 5.10889C55.994 5.10664 55.8369 5.04526 55.7129 4.93535C55.5827 4.81966 55.5093 4.64673 55.4909 4.41596C55.475 4.20919 55.5306 3.95319 55.6579 3.64673C55.3879 3.76612 55.1796 3.90212 55.0328 4.05535C54.9221 4.16628 54.8254 4.29138 54.7451 4.42766C54.7676 4.45658 54.7895 4.48673 54.8102 4.51689C55.0511 4.8535 55.1713 5.28612 55.1713 5.81535C55.1713 6.34458 55.0511 6.77781 54.8102 7.11443C54.5699 7.45104 54.2413 7.7015 53.8246 7.86519C53.4085 8.02827 52.9367 8.11012 52.4086 8.11012C52.3297 8.1102 52.2507 8.10836 52.1719 8.10458C52.047 8.19258 51.9268 8.28612 51.812 8.38458C51.7406 8.44259 51.6834 8.51718 51.6448 8.60236C51.6063 8.68754 51.5875 8.78094 51.59 8.87504C51.59 9.18273 51.7753 9.33658 52.1452 9.33658H53.6583C54.1673 9.33658 54.6208 9.39935 55.0186 9.52427C55.4258 9.64981 55.7449 9.85658 55.9763 10.1452C56.2173 10.424 56.3374 10.7895 56.3374 11.2418C56.3374 11.7132 56.1895 12.1507 55.8935 12.555C55.6064 12.9593 55.1624 13.2812 54.5604 13.5218C53.959 13.7723 53.1954 13.8972 52.2701 13.8972ZM52.4086 7.85043C52.659 7.85043 52.8526 7.70643 52.9917 7.41781C53.1308 7.11935 53.2001 6.58519 53.2001 5.81596C53.2001 5.04612 53.1308 4.51689 52.9917 4.22827C52.8532 3.92981 52.659 3.78089 52.4092 3.78089C52.1683 3.78089 51.9742 3.92981 51.8262 4.22827C51.6871 4.51689 51.6178 5.04612 51.6178 5.81596C51.6178 6.58519 51.6871 7.11935 51.8262 7.41781C51.9742 7.70643 52.1683 7.85043 52.4086 7.85043ZM47.5025 3.91073C46.9934 3.65104 46.4015 3.52119 45.7261 3.52119C45.069 3.52119 44.4812 3.65104 43.9632 3.91073C43.4542 4.17043 43.0516 4.58889 42.7556 5.16612C42.4685 5.74335 42.3247 6.50827 42.3247 7.46089C42.3247 8.4135 42.4686 9.17781 42.7551 9.75566C43.051 10.323 43.4536 10.7366 43.9626 10.9963C44.4812 11.256 45.069 11.3864 45.7261 11.3864C46.4015 11.3864 46.994 11.256 47.5025 10.9963C48.0116 10.7366 48.4094 10.323 48.6965 9.75566C48.9836 9.17843 49.1268 8.4135 49.1268 7.46089C49.1268 6.50827 48.9836 5.74396 48.6965 5.16612C48.41 4.58889 48.0116 4.17043 47.5025 3.91073ZM44.7955 4.67566C45.0459 4.09843 45.3555 3.80981 45.7261 3.80981C46.1049 3.80981 46.4151 4.09843 46.6554 4.67566C46.9058 5.24304 47.0307 6.17166 47.0307 7.46089C47.0307 8.75012 46.9058 9.67873 46.656 10.2461C46.4151 10.8135 46.1055 11.0978 45.7261 11.0978C45.3555 11.0978 45.0453 10.8135 44.7955 10.2461C44.5457 9.67873 44.4208 8.75012 44.4208 7.46089C44.4208 6.17166 44.5457 5.24304 44.7955 4.67566Z" fill="#3657C3"/>
<path d="M38.586 0.966797V1.25603C38.2717 1.26526 38.0308 1.30341 37.8644 1.3711C37.7883 1.3979 37.7195 1.44338 37.6639 1.50369C37.6082 1.564 37.5674 1.63736 37.5448 1.71757C37.4897 1.88064 37.4619 2.14095 37.4619 2.49664V9.82772C37.4619 10.1256 37.4803 10.3471 37.5176 10.4917C37.5637 10.6357 37.6472 10.7317 37.7674 10.7803C37.897 10.8283 38.087 10.8523 38.3362 10.8523H39.017C39.3307 10.8523 39.6273 10.7754 39.9049 10.6216C40.1831 10.4677 40.4323 10.2511 40.6543 9.97172C40.8885 9.66142 41.0759 9.31594 41.2102 8.9471C41.3582 8.55326 41.4689 8.1151 41.5429 7.63387H41.8625C41.8347 7.96126 41.8211 8.38464 41.8211 8.90403C41.8211 9.12557 41.8252 9.44741 41.8347 9.8708C41.8442 10.2942 41.8714 10.7323 41.9176 11.184C41.3858 11.1636 40.8537 11.154 40.3216 11.1551C39.7297 11.1459 39.2017 11.141 38.7388 11.141H37.8508C37.4897 11.141 37.1008 11.1459 36.6847 11.1551C36.2679 11.1551 35.8471 11.16 35.4215 11.1699C34.9952 11.1699 34.5927 11.1748 34.2139 11.184V10.8954C34.5098 10.8763 34.7318 10.8376 34.8798 10.7803C35.0278 10.7225 35.1249 10.6068 35.1716 10.4339C35.2267 10.2603 35.2545 10.0006 35.2545 9.65418V2.49664C35.2545 2.14034 35.2267 1.88126 35.1716 1.71757C35.1534 1.63751 35.1158 1.56364 35.0623 1.503C35.0088 1.44235 34.9413 1.39694 34.8662 1.3711C34.7182 1.30341 34.5004 1.26526 34.2139 1.25541V0.966797C34.9446 0.994944 35.6758 1.00931 36.4071 1.00987C36.8143 1.00987 37.2121 1.00557 37.6004 0.99572C37.9988 0.985874 38.3274 0.976643 38.586 0.966797Z" fill="#3657C3"/>
<path fill-rule="evenodd" clip-rule="evenodd" d="M100.556 23.1094C100.536 23.0061 100.549 22.8713 100.596 22.7051L102.551 15.3408C102.238 15.4743 101.914 15.5783 101.584 15.6516C101.244 15.7211 100.855 15.7587 100.416 15.7661L100.346 15.9839C100.673 15.9839 100.876 16.0393 100.955 16.1501C101.035 16.2608 101.045 16.4331 100.985 16.6682L100.522 18.483C100.493 18.3954 100.443 18.3171 100.377 18.2553C100.263 18.1445 100.107 18.0891 99.9077 18.0891C99.5088 18.0891 99.1394 18.1827 98.8002 18.3691C98.459 18.5629 98.152 18.8155 97.8921 19.1162C97.6192 19.4209 97.3875 19.7629 97.2037 20.1328C97.0225 20.4928 96.8787 20.8717 96.7745 21.2633C96.68 21.6006 96.6296 21.9495 96.6248 22.3008C96.6248 22.6325 96.6751 22.9057 96.7745 23.1199C96.8746 23.3273 97.0107 23.483 97.1836 23.5864C97.3564 23.6836 97.5494 23.7316 97.7625 23.7316C98.0881 23.7316 98.3811 23.6319 98.6404 23.4313C98.8996 23.2239 99.1423 22.9057 99.3691 22.4768C99.4638 22.3021 99.5591 22.1057 99.6538 21.8879L99.5881 22.1451C99.528 22.3477 99.4879 22.5562 99.4685 22.7673C99.4555 22.947 99.4685 23.0996 99.5088 23.2239C99.5881 23.5624 99.8343 23.7322 100.247 23.7322C100.4 23.7322 100.556 23.7008 100.716 23.6387C100.876 23.5765 101.025 23.4694 101.164 23.3168C101.311 23.1648 101.427 22.9476 101.514 22.6633L101.753 21.9064H101.564L101.404 22.3728C101.285 22.7261 101.172 22.9642 101.065 23.0885C100.965 23.2067 100.862 23.2651 100.755 23.2651C100.642 23.2651 100.576 23.2134 100.556 23.1094ZM100.024 20.4387C99.9486 20.6916 99.8669 20.9322 99.7781 21.1593C99.6118 21.6024 99.4354 21.9827 99.2489 22.3008C99.0695 22.6116 98.8931 22.8534 98.7203 23.027C98.5474 23.1925 98.3941 23.2756 98.2615 23.2756C98.1348 23.2756 98.0419 23.2134 97.9821 23.0891C97.9288 22.9574 97.9022 22.7605 97.9022 22.4977C97.9022 22.1242 97.9419 21.7439 98.0218 21.3568C98.1017 20.963 98.2112 20.5857 98.3509 20.2264C98.4795 19.8891 98.6399 19.5659 98.8298 19.2614C99.0097 18.971 99.1992 18.7427 99.3987 18.5765C99.6047 18.4104 99.8077 18.3279 100.007 18.3279C100.14 18.3279 100.247 18.3765 100.327 18.4731C100.382 18.5359 100.425 18.627 100.455 18.7476L100.024 20.4387Z" fill="#3657C3"/>
<path d="M93.9166 23.5864H92.6895L93.8864 19.1162C93.9468 18.9088 93.9663 18.7636 93.9468 18.6805C93.9266 18.5974 93.8668 18.5562 93.7668 18.5562C93.6407 18.5562 93.5241 18.6221 93.4176 18.7531C93.311 18.8842 93.2015 19.1162 93.0884 19.4485L92.9185 19.9353H92.7291L92.9884 19.1574C93.0819 18.8805 93.1979 18.667 93.3376 18.5144C93.4773 18.3556 93.6307 18.2448 93.797 18.1827C93.9633 18.1205 94.1326 18.0891 94.3055 18.0891C94.5186 18.0891 94.6749 18.1341 94.7743 18.2245C94.8809 18.3144 94.9478 18.4319 94.9744 18.5771C95.008 18.7336 95.0146 18.8951 94.9939 19.054C94.9809 19.2202 94.9543 19.3827 94.914 19.5414L94.7536 20.1919L94.7944 20.0811C94.9809 19.5901 95.1603 19.1993 95.3331 18.9088C95.5131 18.6116 95.7025 18.4005 95.902 18.2762C96.0975 18.1527 96.322 18.0879 96.5508 18.0891C96.7899 18.0891 96.9728 18.1617 97.0995 18.307C97.2327 18.4522 97.299 18.6319 97.299 18.8467C97.299 19.019 97.2588 19.182 97.1794 19.334C97.1018 19.4767 96.9921 19.5977 96.8598 19.6867C96.7337 19.7697 96.5875 19.811 96.4211 19.811C96.2548 19.811 96.1216 19.7661 96.0216 19.6762C95.9286 19.5864 95.8819 19.4547 95.8819 19.2824C95.8819 19.1297 95.9156 18.9919 95.9819 18.867C96.046 18.7453 96.1344 18.6394 96.2412 18.5562C96.3477 18.4664 96.4643 18.4042 96.5904 18.3691C96.5765 18.3549 96.5594 18.3443 96.5407 18.3384C96.5181 18.331 96.4945 18.3275 96.4709 18.3279C96.3246 18.3279 96.1749 18.3833 96.0216 18.494C95.8688 18.5974 95.709 18.7673 95.5427 19.0024C95.3763 19.2374 95.207 19.5482 95.0342 19.9353C94.8391 20.393 94.6658 20.8604 94.515 21.3359C94.4399 21.5661 94.3641 21.8134 94.2883 22.0787L93.9166 23.5864Z" fill="#3657C3"/>
<path fill-rule="evenodd" clip-rule="evenodd" d="M90.1882 21.9839L90.1462 22.1451C90.0832 22.3794 90.0398 22.6188 90.0166 22.8608C89.9964 23.0824 90.0296 23.2688 90.116 23.4208C90.2492 23.6282 90.4753 23.7322 90.7944 23.7322C90.9477 23.7322 91.1004 23.7008 91.2537 23.6387C91.413 23.5765 91.5627 23.4694 91.7024 23.3168C91.8421 23.1581 91.9588 22.9365 92.0517 22.6534L92.3015 21.8965H92.1115L91.9617 22.363C91.8422 22.7224 91.7261 22.9611 91.6131 23.0787C91.5 23.1956 91.3899 23.2547 91.2833 23.2547C91.1969 23.2547 91.1407 23.227 91.1141 23.1716C91.0932 23.1011 91.0863 23.027 91.0939 22.9537C91.1069 22.8658 91.1269 22.7792 91.1537 22.6947L92.4412 18.0891C92.2408 18.1389 92.0373 18.1737 91.8321 18.1931C91.6261 18.2141 91.4035 18.2276 91.1638 18.2344L91.0193 18.7894C91.0133 18.6485 90.9739 18.5113 90.9045 18.3901C90.8525 18.2955 90.7767 18.2175 90.6852 18.1645C90.5937 18.1115 90.49 18.0854 90.3854 18.0891C90.0929 18.0891 89.8005 18.1827 89.5075 18.3691C89.1962 18.5726 88.9169 18.8245 88.6793 19.1162C88.4108 19.4343 88.1765 19.782 87.9808 20.1531C87.7846 20.5253 87.6274 20.9183 87.512 21.3254C87.4032 21.6917 87.3461 22.0725 87.3427 22.4559C87.3427 22.8436 87.4291 23.1544 87.602 23.3894C87.7748 23.6177 88.0406 23.7316 88.3999 23.7316C88.6527 23.7316 88.8954 23.6559 89.1286 23.5039C89.3678 23.3513 89.5939 23.099 89.807 22.747C89.939 22.5347 90.0657 22.2805 90.1882 21.9839ZM89.3281 23.0368C89.1748 23.1821 89.0387 23.2547 88.9191 23.2547C88.819 23.2547 88.7427 23.203 88.6894 23.099C88.6426 22.9882 88.6196 22.8054 88.6196 22.5494C88.6196 22.1827 88.6592 21.8061 88.7391 21.419C88.819 21.0313 88.9256 20.6584 89.0588 20.299C89.1985 19.939 89.3512 19.6177 89.5175 19.3341C89.6839 19.051 89.8502 18.8257 90.0166 18.6596C90.1894 18.4934 90.3522 18.411 90.5055 18.411C90.6648 18.411 90.7778 18.4941 90.8447 18.6596C90.911 18.8097 90.9282 19.011 90.8962 19.2627L90.6014 20.3962L90.6352 20.2159C90.5286 20.6584 90.4019 21.0664 90.2557 21.4399C90.1284 21.7738 89.975 22.0964 89.797 22.4042C89.6371 22.6737 89.4809 22.8848 89.3281 23.0368ZM86.0013 22.7051C85.9546 22.8713 85.9416 23.0061 85.9617 23.1094C85.9812 23.2134 86.0481 23.2651 86.1612 23.2651C86.2677 23.2651 86.3707 23.2067 86.4702 23.0891C86.5767 22.9642 86.6898 22.7261 86.8094 22.3728L86.9692 21.9064H87.1586L86.9195 22.6633C86.833 22.947 86.7164 23.1648 86.5702 23.3168C86.4459 23.4582 86.2922 23.5682 86.1209 23.6387C85.9714 23.699 85.8125 23.7307 85.6521 23.7322C85.2401 23.7322 84.9938 23.5624 84.9139 23.2239C84.8718 23.0759 84.8583 22.9207 84.8743 22.7673C84.8873 22.5876 84.9269 22.3796 84.9938 22.1451L85.0595 21.8879C84.9642 22.1057 84.8689 22.3021 84.7742 22.4768C84.5481 22.9057 84.3054 23.2239 84.0461 23.4307C83.7933 23.6292 83.4845 23.7352 83.1677 23.7322C82.9551 23.7322 82.7622 23.683 82.5893 23.587C82.4111 23.4774 82.2686 23.3147 82.1803 23.1199C82.0802 22.9057 82.0305 22.6325 82.0305 22.3008C82.0305 21.9827 82.0802 21.6362 82.1803 21.2633C82.2797 20.883 82.423 20.5064 82.6089 20.1328C82.7929 19.7631 83.0245 19.421 83.2973 19.1162C83.5702 18.8048 83.8727 18.5562 84.2054 18.3691C84.5466 18.182 84.9271 18.0857 85.3129 18.0891C85.5124 18.0891 85.6687 18.1445 85.7817 18.2553C85.8468 18.315 85.896 18.3907 85.9279 18.483L86.3903 16.6682C86.4506 16.4331 86.4406 16.2602 86.3607 16.1494C86.2807 16.0387 86.0777 15.9833 85.7521 15.9833L85.822 15.7661C86.2136 15.7637 86.6042 15.7254 86.9893 15.6516C87.3202 15.5783 87.6441 15.4743 87.9572 15.3408L86.0013 22.7051ZM85.1833 21.1593C85.2721 20.9316 85.3543 20.6916 85.4289 20.4387L85.8605 18.7476C85.8397 18.6466 85.7956 18.5524 85.732 18.4731C85.6928 18.4255 85.6437 18.3876 85.5885 18.3625C85.5332 18.3373 85.4732 18.3255 85.4129 18.3279C85.2134 18.3279 85.0104 18.411 84.8044 18.5765C84.6043 18.7427 84.4149 18.971 84.2355 19.2614C84.0455 19.5655 83.8851 19.8886 83.7567 20.2257C83.6149 20.5919 83.5047 20.9704 83.4275 21.3568C83.3488 21.7316 83.3085 22.1141 83.3074 22.4977C83.3074 22.7605 83.334 22.9574 83.3873 23.0885C83.4471 23.2134 83.5406 23.2756 83.6667 23.2756C83.7999 23.2756 83.9526 23.1925 84.1254 23.0264C84.2989 22.8541 84.4747 22.6116 84.6546 22.3002C84.862 21.9363 85.0388 21.5546 85.1833 21.1593Z" fill="#3657C3"/>
<path d="M76.5361 23.5863H77.7633L77.8787 23.1174L77.8728 23.1513C77.9994 22.667 78.1421 22.2005 78.3019 21.7507C78.4572 21.3213 78.6302 20.8992 78.8205 20.4854C79.0004 20.0977 79.1798 19.7593 79.3597 19.4688C79.5391 19.1783 79.712 18.9537 79.8783 18.7943C80.0446 18.6282 80.1974 18.5457 80.3371 18.5457C80.4501 18.5457 80.52 18.587 80.5466 18.67C80.5742 18.7643 80.5777 18.8644 80.5567 18.9605C80.5368 19.0729 80.5101 19.1839 80.4768 19.2928L79.5693 22.1451C79.4758 22.4356 79.4225 22.6842 79.4095 22.8916C79.3959 23.099 79.4326 23.2688 79.519 23.3999C79.5859 23.5039 79.6788 23.5833 79.7984 23.6386C79.9251 23.7002 80.0748 23.7322 80.2477 23.7322C80.4069 23.7322 80.5667 23.7008 80.7266 23.6386C80.8929 23.5833 81.0456 23.4793 81.1853 23.3273C81.3315 23.1753 81.4517 22.9537 81.5447 22.6633L81.7939 21.9063H81.6044L81.4446 22.3728C81.3185 22.7328 81.1989 22.971 81.0859 23.0885C80.9793 23.2067 80.8763 23.2651 80.7763 23.2651C80.6697 23.2651 80.6034 23.2202 80.5768 23.1297C80.5502 23.0337 80.5667 22.8916 80.6265 22.7051L81.6044 19.6553C81.6909 19.3857 81.7341 19.1334 81.7341 18.8983C81.7406 18.6565 81.6778 18.4626 81.5447 18.3174C81.418 18.1654 81.1918 18.0897 80.8663 18.0897C80.62 18.0897 80.3838 18.1451 80.1577 18.2553C79.9316 18.366 79.712 18.5593 79.4995 18.8362C79.2863 19.1057 79.0667 19.4725 78.8406 19.9353C78.6906 20.2474 78.5529 20.5658 78.428 20.8897L78.7607 19.5414C78.8009 19.3753 78.8305 19.2091 78.8507 19.0436C78.8708 18.8713 78.8637 18.715 78.8305 18.5765C78.7988 18.4335 78.7172 18.3079 78.6015 18.2239C78.4884 18.134 78.3221 18.0891 78.1024 18.0891C77.8361 18.0891 77.5934 18.1654 77.3737 18.3174C77.1547 18.4694 76.9748 18.7494 76.8351 19.1574L76.5758 19.9353H76.7652L76.9351 19.4479C77.0547 19.1094 77.1642 18.8774 77.2642 18.7531C77.3708 18.622 77.4868 18.5562 77.6135 18.5562C77.7064 18.5562 77.7633 18.5839 77.7834 18.6393C77.8094 18.6946 77.8165 18.7636 77.8029 18.8466C77.788 18.9376 77.768 19.0276 77.7431 19.1162L76.5361 23.5863Z" fill="#3657C3"/>
<path fill-rule="evenodd" clip-rule="evenodd" d="M73.9931 22.1451L74.0351 21.9839C73.9285 22.2487 73.801 22.504 73.6539 22.747C73.4408 23.099 73.2146 23.3519 72.9749 23.5039C72.7423 23.6559 72.4995 23.7316 72.2468 23.7316C71.8875 23.7316 71.6217 23.6177 71.4488 23.3894C71.2754 23.1543 71.189 22.8436 71.189 22.4559C71.189 22.0965 71.2458 21.7199 71.3589 21.3254C71.4743 20.9183 71.6315 20.5253 71.8277 20.1531C72.0232 19.7818 72.2574 19.4341 72.5262 19.1162C72.7638 18.8245 73.0431 18.5725 73.3543 18.3691C73.6468 18.1826 73.9398 18.0891 74.2322 18.0891C74.4583 18.0891 74.6312 18.1894 74.7513 18.3906C74.8153 18.4934 74.8538 18.6263 74.8662 18.7894L75.0106 18.2343C75.2498 18.2276 75.4729 18.214 75.6789 18.1931C75.892 18.1722 76.0945 18.1377 76.2875 18.0891L75.0006 22.6953C74.9735 22.7797 74.9535 22.8664 74.9408 22.9543C74.9332 23.0276 74.94 23.1017 74.9609 23.1722C74.9875 23.2276 75.0438 23.2553 75.1302 23.2553C75.2367 23.2553 75.3463 23.1968 75.4593 23.0793C75.5724 22.9617 75.689 22.7223 75.8086 22.3636L75.9583 21.8965H76.1478L75.8985 22.6534C75.8056 22.9371 75.689 23.158 75.5493 23.318C75.425 23.459 75.2716 23.5689 75.1006 23.6393C74.9545 23.7001 74.7987 23.7319 74.6412 23.7328C74.3222 23.7328 74.096 23.6288 73.9629 23.4214C73.8764 23.2694 73.8433 23.083 73.8634 22.8614C73.8867 22.6194 73.93 22.3793 73.9931 22.1451ZM72.7653 23.2547C72.8855 23.2547 73.0217 23.182 73.175 23.0368C73.3277 22.8848 73.484 22.6737 73.6438 22.4042C73.803 22.1347 73.9563 21.8134 74.1026 21.4399C74.2488 21.0663 74.3755 20.6583 74.482 20.2153L74.4483 20.3962L74.7431 19.2633C74.7744 19.011 74.7573 18.8097 74.6916 18.6602C74.6247 18.494 74.5116 18.411 74.3518 18.411C74.199 18.411 74.0363 18.494 73.8634 18.6596C73.6971 18.8257 73.5307 19.0503 73.3644 19.334C73.1981 19.6171 73.0447 19.939 72.905 20.2983C72.771 20.6625 72.6643 21.037 72.586 21.4183C72.5078 21.7899 72.4677 22.1691 72.4664 22.5494C72.4664 22.8054 72.4895 22.9888 72.5363 23.099C72.5895 23.203 72.6659 23.2547 72.7653 23.2547Z" fill="#3657C3"/>
<path d="M71.881 18.4419L71.9112 18.2345H70.7226L71.1926 16.5336C70.9959 16.5839 70.7958 16.6187 70.5941 16.6376C70.3881 16.6579 70.1649 16.6721 69.9258 16.6788L69.4966 18.2345H68.5886L68.5388 18.4419H69.4398L68.4187 22.1453C68.3323 22.4493 68.3027 22.7225 68.3293 22.9644C68.3624 23.1994 68.4554 23.3865 68.6087 23.5244C68.7679 23.6628 68.9976 23.7324 69.2971 23.7324C69.6363 23.7324 69.9288 23.6388 70.175 23.4517C70.4213 23.2653 70.6142 22.9576 70.7539 22.5287L70.9534 21.9065H70.7634L70.6142 22.3317C70.4941 22.6776 70.3615 22.9194 70.2147 23.0579C70.075 23.1964 69.9353 23.2653 69.7956 23.2653C69.7407 23.2672 69.6861 23.256 69.636 23.2325C69.5859 23.209 69.5417 23.1739 69.5067 23.1299C69.4398 23.0407 69.4333 22.8991 69.4866 22.7053L70.6651 18.4419H71.881ZM68.5767 16.1705C68.5104 16.3502 68.4205 16.6136 68.3074 16.9588C68.2008 17.2973 68.0949 17.7404 67.9883 18.2862H67.7888C67.8084 18.1896 67.822 18.0893 67.8285 17.9859C67.8413 17.8931 67.848 17.7996 67.8486 17.7059C67.8486 17.4357 67.7954 17.2013 67.6888 17.0007C67.5865 16.7903 67.4222 16.6193 67.22 16.5127C67.014 16.3884 66.7476 16.3262 66.422 16.3262C66.0692 16.3262 65.7697 16.4228 65.524 16.6167C65.2778 16.8031 65.1546 17.1041 65.1546 17.5188C65.1546 17.7748 65.2109 18.0173 65.3239 18.245C65.4441 18.4665 65.5939 18.6844 65.7732 18.8985C65.9597 19.1059 66.1556 19.317 66.3616 19.5311C66.5682 19.7385 66.7612 19.9533 66.9406 20.1742C67.1199 20.3957 67.2667 20.6308 67.3798 20.8794C67.4994 21.1219 67.5592 21.3877 67.5592 21.6782C67.5592 22.045 67.4727 22.3594 67.2999 22.6222C67.1313 22.8803 66.9097 23.0964 66.6511 23.2548C66.38 23.416 66.0876 23.5348 65.7833 23.6074C65.4903 23.6888 65.1885 23.7308 64.8853 23.7324C64.5858 23.7324 64.3366 23.7077 64.1371 23.6597C63.9666 23.6264 63.8018 23.5668 63.6481 23.4831C63.5175 23.4087 63.3877 23.3328 63.2586 23.2554C63.1999 23.2042 63.1321 23.1653 63.0591 23.141C63.0126 23.1167 62.9619 23.1025 62.91 23.0991C62.8229 23.0991 62.7501 23.1441 62.6903 23.2345C62.6119 23.3696 62.5451 23.5117 62.4909 23.6591H62.2908C62.4556 23.2373 62.5924 22.8043 62.7004 22.3631C62.7797 22.045 62.8697 21.6474 62.9697 21.1699H63.1692C63.1414 21.3073 63.1181 21.4456 63.0994 21.5847C63.0793 21.7231 63.0727 21.8616 63.0793 22.0001C63.0994 22.4837 63.242 22.8573 63.5084 23.1201C63.7813 23.3828 64.1803 23.5139 64.7054 23.5139C65.1511 23.5139 65.4873 23.4173 65.7135 23.2241C65.9396 23.0234 66.0526 22.733 66.0526 22.3527C66.0526 22.0622 65.9994 21.7988 65.8928 21.5644C65.7922 21.3205 65.6578 21.0932 65.4938 20.8899C65.3247 20.6795 65.1484 20.4755 64.9652 20.2782C64.7816 20.0809 64.6051 19.8767 64.436 19.6659C64.2727 19.4565 64.1353 19.2266 64.027 18.9816C63.9181 18.7197 63.8638 18.4367 63.8677 18.1514C63.8677 17.8062 63.9376 17.5053 64.0773 17.2493C64.218 16.9996 64.4083 16.7839 64.6355 16.6167C64.8685 16.4437 65.1284 16.3138 65.4039 16.2327C65.6718 16.1447 65.951 16.0993 66.232 16.0979C66.5913 16.0979 66.8873 16.1428 67.1199 16.2333C67.3532 16.3225 67.5527 16.4302 67.719 16.5545L67.9084 16.6788C67.9682 16.7065 68.015 16.7201 68.0481 16.7201C68.1411 16.7201 68.2512 16.5373 68.3772 16.1705H68.5767Z" fill="#3657C3"/>
<path fill-rule="evenodd" clip-rule="evenodd" d="M58.9456 23.1094C58.9254 23.0061 58.9391 22.8713 58.9858 22.7051L60.941 15.3408C60.628 15.4743 60.3041 15.5783 59.9732 15.6516C59.634 15.7211 59.2451 15.7587 58.8059 15.7661L58.736 15.9839C59.0616 15.9839 59.2652 16.0393 59.3445 16.1501C59.4245 16.2608 59.4345 16.4331 59.3747 16.6682L58.9118 18.483C58.8828 18.3954 58.8326 18.317 58.7662 18.2553C58.6531 18.1445 58.4969 18.0891 58.2974 18.0891C57.8978 18.0891 57.529 18.1827 57.1898 18.3691C56.8486 18.5629 56.5416 18.8155 56.2818 19.1162C56.0088 19.4209 55.7772 19.7629 55.5933 20.1328C55.4121 20.4928 55.2683 20.8717 55.1642 21.2633C55.0694 21.6005 55.0191 21.9495 55.0144 22.3008C55.0144 22.6325 55.0647 22.9057 55.1642 23.1199C55.2642 23.3273 55.4004 23.483 55.5732 23.5864C55.7461 23.6836 55.939 23.7316 56.1521 23.7316C56.4777 23.7316 56.7707 23.6319 57.03 23.4313C57.2893 23.2239 57.532 22.9057 57.7581 22.4768C57.8528 22.3021 57.9481 22.1057 58.0434 21.8879L57.9783 22.1451C57.9178 22.3477 57.8775 22.5562 57.8582 22.7673C57.8423 22.9207 57.8557 23.0759 57.8978 23.2239C57.9777 23.5624 58.2234 23.7322 58.6366 23.7322C58.7893 23.7322 58.9456 23.7008 59.1054 23.6387C59.2652 23.5765 59.4144 23.4694 59.5541 23.3168C59.7009 23.1648 59.8169 22.9476 59.9034 22.6633L60.1431 21.9064H59.9537L59.7938 22.3728C59.6743 22.7261 59.5612 22.9642 59.4547 23.0885C59.3546 23.2067 59.2516 23.2651 59.1451 23.2651C59.0326 23.2651 58.9657 23.2134 58.9456 23.1094ZM58.4128 20.4387C58.3382 20.6916 58.2565 20.9322 58.1672 21.1593C58.0014 21.6024 57.825 21.9827 57.6385 22.3008C57.4592 22.6116 57.2828 22.8534 57.1099 23.027C56.9371 23.1925 56.7843 23.2756 56.6506 23.2756C56.5245 23.2756 56.4315 23.2134 56.3718 23.0891C56.3185 22.9574 56.2918 22.7605 56.2918 22.4977C56.2918 22.1242 56.3315 21.7439 56.4114 21.3568C56.4913 20.963 56.6008 20.5857 56.7405 20.2264C56.8693 19.889 57.0299 19.5658 57.22 19.2614C57.3994 18.971 57.5888 18.7427 57.7883 18.5765C57.9943 18.4104 58.1973 18.3279 58.3968 18.3279C58.53 18.3279 58.6366 18.3765 58.7165 18.4731C58.7721 18.5359 58.8147 18.627 58.8443 18.7476L58.4128 20.4387Z" fill="#3657C3"/>
<path d="M50.7471 23.5863H49.52L50.7276 19.1162C50.7542 19.0196 50.7738 18.9297 50.7868 18.8466C50.8016 18.7771 50.7948 18.7045 50.7673 18.6393C50.7471 18.5839 50.6903 18.5562 50.5974 18.5562C50.4713 18.5562 50.3547 18.622 50.2481 18.7531C50.1487 18.8774 50.0386 19.1094 49.919 19.4485L49.7497 19.9353H49.5603L49.8196 19.1574C49.9593 18.7494 50.1392 18.4694 50.3582 18.3174C50.5772 18.1654 50.82 18.0897 51.0863 18.0897C51.3059 18.0897 51.4723 18.134 51.5853 18.2239C51.7013 18.3078 51.7831 18.4334 51.815 18.5765C51.8482 18.715 51.8547 18.8706 51.8352 19.0436C51.8148 19.2112 51.7848 19.3775 51.7452 19.5414L51.4125 20.8903C51.5534 20.5279 51.6907 20.2103 51.8251 19.9353C52.0512 19.4725 52.2702 19.1057 52.4833 18.8362C52.6964 18.5593 52.9155 18.366 53.1416 18.2553C53.3683 18.1445 53.6039 18.0891 53.8502 18.0891C54.1757 18.0891 54.4025 18.1654 54.5285 18.3174C54.6617 18.4626 54.7251 18.6559 54.718 18.8983C54.718 19.1334 54.6753 19.3857 54.5883 19.6553L53.611 22.7051C53.5506 22.8916 53.5341 23.0337 53.5607 23.1297C53.5873 23.2202 53.6542 23.2651 53.7608 23.2651C53.8602 23.2651 53.9632 23.2066 54.0698 23.0891C54.1828 22.971 54.3024 22.7322 54.4291 22.3728L54.5889 21.9063H54.7783L54.5285 22.6633C54.4356 22.9537 54.3154 23.1753 54.1698 23.3279C54.0444 23.4702 53.8864 23.5771 53.7105 23.6386C53.5576 23.6996 53.3953 23.7313 53.2316 23.7322C53.0587 23.7322 52.909 23.7008 52.7829 23.6386C52.6627 23.5833 52.5698 23.5033 52.5035 23.3999C52.417 23.2688 52.3803 23.099 52.3934 22.8916C52.407 22.6842 52.4603 22.4356 52.5532 22.1451L53.4613 19.2928C53.4944 19.182 53.521 19.0713 53.5412 18.9605C53.5621 18.8644 53.5586 18.7643 53.5311 18.67C53.5045 18.587 53.4346 18.5457 53.3216 18.5457C53.1818 18.5457 53.0285 18.6288 52.8628 18.7943C52.6964 18.9537 52.523 19.1783 52.3436 19.4688C52.1445 19.7961 51.9647 20.1356 51.805 20.4854C51.6256 20.8731 51.4522 21.294 51.2858 21.7507C51.126 22.1999 50.9839 22.667 50.8572 23.1513L50.8632 23.1174L50.7471 23.5863Z" fill="#3657C3"/>
<path fill-rule="evenodd" clip-rule="evenodd" d="M47.0189 21.984L46.9774 22.1452C46.9146 22.3795 46.871 22.6189 46.8472 22.8609C46.8271 23.0824 46.8602 23.2689 46.9466 23.4209C47.0798 23.6283 47.306 23.7323 47.6256 23.7323C47.7962 23.731 47.9648 23.6935 48.1209 23.6221C48.2771 23.5506 48.4175 23.4468 48.5337 23.3169C48.6734 23.1581 48.7894 22.9366 48.8829 22.6535L49.1315 21.8966H48.9421L48.7929 22.363C48.6728 22.7224 48.5562 22.9612 48.4437 23.0787C48.3306 23.1957 48.2205 23.2547 48.1146 23.2547C48.0276 23.2547 47.9713 23.227 47.9447 23.1717C47.9239 23.1012 47.917 23.0271 47.9246 22.9538C47.9382 22.864 47.9577 22.7778 47.9849 22.6947L49.2718 18.0892C49.0717 18.139 48.8683 18.1737 48.6633 18.1932C48.4567 18.2141 48.2341 18.2277 47.9944 18.2344L47.85 18.7895C47.8438 18.6486 47.8044 18.5114 47.7351 18.3901C47.6832 18.2957 47.6075 18.2178 47.5161 18.1647C47.4247 18.1117 47.3212 18.0856 47.2166 18.0892C46.9236 18.0892 46.6305 18.1827 46.3381 18.3692C46.0457 18.5563 45.7698 18.8049 45.51 19.1163C45.2412 19.4342 45.007 19.7819 44.8115 20.1532C44.6152 20.5254 44.4581 20.9184 44.3426 21.3255C44.2338 21.6918 44.1768 22.0726 44.1733 22.456C44.1733 22.8437 44.2598 23.1544 44.4326 23.3895C44.6055 23.6178 44.8718 23.7317 45.2306 23.7317C45.4833 23.7317 45.7266 23.656 45.9587 23.504C46.1984 23.3513 46.4251 23.099 46.6376 22.747C46.7697 22.5347 46.8963 22.2806 47.0189 21.984ZM46.1588 23.0369C46.006 23.1821 45.8693 23.2547 45.7497 23.2547C45.6497 23.2547 45.5733 23.203 45.52 23.099C45.4739 22.9883 45.4502 22.8055 45.4502 22.5495C45.4502 22.1827 45.4904 21.8061 45.5704 21.419C45.6497 21.0313 45.7562 20.6584 45.8894 20.299C46.0291 19.939 46.1818 19.6178 46.3482 19.3341C46.5145 19.051 46.6809 18.8258 46.8472 18.6597C47.02 18.4935 47.1828 18.411 47.3362 18.411C47.496 18.411 47.6084 18.4941 47.6753 18.6597C47.7416 18.8098 47.7582 19.011 47.7268 19.2627L47.432 20.3963L47.4658 20.216C47.3592 20.6584 47.2331 21.0664 47.0869 21.44C46.9401 21.8129 46.7874 22.1347 46.6276 22.4043C46.4678 22.6738 46.3115 22.8849 46.1588 23.0369Z" fill="#3657C3"/>
<path d="M41.505 23.5864H40.2778L41.4748 19.1162C41.5346 18.9088 41.5547 18.7636 41.5346 18.6805C41.515 18.5974 41.4552 18.5562 41.3552 18.5562C41.2291 18.5562 41.1125 18.6221 41.0059 18.7531C40.8994 18.8842 40.7899 19.1162 40.6768 19.4485L40.5069 19.9353H40.3175L40.5768 19.1574C40.6703 18.8805 40.7863 18.667 40.926 18.5144C41.0657 18.3556 41.219 18.2448 41.3854 18.1827C41.5511 18.1205 41.721 18.0891 41.8945 18.0891C42.107 18.0891 42.2632 18.1341 42.3627 18.2245C42.4685 18.3128 42.5397 18.4382 42.5628 18.5771C42.5959 18.7224 42.6024 18.8811 42.5823 19.054C42.5693 19.2202 42.5427 19.3827 42.5024 19.5414L42.3426 20.1919L42.3586 20.147L42.3828 20.0811C42.5693 19.5901 42.7487 19.1993 42.9215 18.9088C43.1015 18.6116 43.2909 18.4005 43.4904 18.2762C43.6858 18.1527 43.9104 18.0879 44.1391 18.0891C44.3783 18.0891 44.5612 18.1617 44.6879 18.307C44.8205 18.4522 44.8874 18.6319 44.8874 18.8467C44.8874 19.019 44.8471 19.182 44.7672 19.334C44.6898 19.4766 44.5803 19.5976 44.4481 19.6867C44.3163 19.7712 44.1638 19.8143 44.0089 19.811C43.8432 19.811 43.71 19.7661 43.6099 19.6762C43.517 19.5864 43.4702 19.4547 43.4702 19.2824C43.4702 19.1297 43.5034 18.9919 43.5703 18.867C43.6366 18.7427 43.723 18.6393 43.8296 18.5562C43.9361 18.4664 44.0521 18.4042 44.1788 18.3691C44.1648 18.355 44.1477 18.3444 44.1291 18.3384C44.1158 18.3337 44.1021 18.3306 44.0882 18.3291C44.0784 18.3282 44.0685 18.3277 44.0586 18.3279C43.913 18.3279 43.7627 18.3833 43.6099 18.494C43.4572 18.5974 43.2974 18.7673 43.1311 19.0024C42.9653 19.2374 42.7954 19.5482 42.622 19.9353C42.4269 20.3929 42.2539 20.8604 42.1034 21.3359C42.0282 21.5654 41.9525 21.8134 41.8767 22.0787L41.505 23.5864Z" fill="#3657C3"/>
<path fill-rule="evenodd" clip-rule="evenodd" d="M39.6385 16.6272C39.3058 16.3779 38.7737 16.2536 38.042 16.2536C37.8159 16.2536 37.5897 16.2573 37.363 16.2641C37.144 16.2709 36.8912 16.2745 36.6053 16.2745H36.1063C35.9264 16.2672 35.7571 16.2641 35.5972 16.2641C35.4642 16.258 35.3312 16.251 35.1983 16.2432L35.1485 16.4505C35.4078 16.4505 35.5842 16.485 35.6771 16.5545C35.7772 16.6161 35.8234 16.7133 35.8168 16.845C35.8034 17.013 35.7767 17.1795 35.7369 17.3429L34.4198 22.4875C34.3606 22.7361 34.2937 22.9232 34.2203 23.0475C34.1541 23.1664 34.0474 23.2553 33.9214 23.2967C33.7947 23.3379 33.6183 23.3656 33.3922 23.3792L33.3525 23.5865C33.465 23.5804 33.6018 23.5767 33.761 23.5767C33.9208 23.5693 34.0907 23.5662 34.2701 23.5662C34.7722 23.5504 35.2747 23.5539 35.7766 23.5767C36.0495 23.5829 36.2993 23.5872 36.5254 23.5872C36.9575 23.5872 37.3666 23.5416 37.7525 23.4518C38.1083 23.3679 38.4485 23.2245 38.76 23.0272C39.0387 22.8546 39.2745 22.6164 39.4485 22.3318C39.6213 22.0549 39.7078 21.7305 39.7078 21.357C39.7078 20.9349 39.542 20.5718 39.2093 20.2678C38.8838 19.9632 38.3676 19.7835 37.6626 19.7281C38.1024 19.6624 38.5298 19.526 38.9293 19.3238C39.3023 19.1232 39.5947 18.8776 39.8078 18.5872C40.0223 18.3114 40.1386 17.967 40.1369 17.6124C40.1369 17.1976 39.9718 16.869 39.6385 16.6272ZM36.4538 19.8635L35.7867 22.4875C35.747 22.6598 35.7204 22.8124 35.7073 22.9435C35.7002 23.0752 35.7334 23.1755 35.8068 23.245C35.8802 23.3139 36.0163 23.3484 36.2158 23.3484C36.6882 23.3484 37.0742 23.2549 37.3731 23.0684C37.666 22.8893 37.8994 22.6216 38.042 22.301C38.1882 21.9687 38.261 21.5952 38.261 21.181C38.261 20.9244 38.2178 20.6998 38.1314 20.5065C38.0553 20.3102 37.9184 20.1459 37.7425 20.0395C37.5631 19.9219 37.3234 19.8635 37.0238 19.8635H36.4538ZM36.4988 19.6869H36.9546C37.3334 19.6869 37.656 19.5865 37.9218 19.3859C38.1947 19.1785 38.4013 18.909 38.541 18.5773C38.6865 18.2487 38.7612 17.8911 38.76 17.5293C38.76 17.1835 38.6937 16.9176 38.5606 16.7305C38.4345 16.5441 38.2113 16.4505 37.8916 16.4505C37.6596 16.4505 37.4933 16.4992 37.3932 16.5958C37.2938 16.6856 37.2073 16.8825 37.1339 17.1865L36.4988 19.6869Z" fill="#3657C3"/>
</g>
<defs>
<clipPath id="clip0_117_15">
<rect width="103" height="24" fill="white"/>
</clipPath>
</defs>
</svg>
