<svg width="103" height="25" viewBox="0 0 103 25" fill="none" xmlns="http://www.w3.org/2000/svg">
<g clip-path="url(#clip0_117_32)">
<path d="M29.7179 13.347C29.7384 12.937 29.7384 12.5262 29.7179 12.1162H7.2538C7.24907 12.2183 7.24493 12.3211 7.24256 12.4239H2.53652L2.53416 12.5777H0V12.8854H2.53356L2.53711 13.0393H7.24256C7.24493 13.1426 7.24848 13.2448 7.2544 13.347H13.7037C13.6793 13.1428 13.667 12.9373 13.667 12.7316H23.1383C23.1383 12.9402 23.1265 13.1457 23.1016 13.347H29.7179ZM29.6711 11.5008H22.9897C22.9378 11.2914 22.8725 11.0858 22.7944 10.8854H14.0127C13.9352 11.0848 13.8695 11.2897 13.8174 11.5008H7.29998C7.31063 11.398 7.32247 11.2953 7.33549 11.1931H2.62946L2.64959 11.043H0V10.7353H2.69635L2.72358 10.5777H7.42962C7.44737 10.475 7.4675 10.3722 7.48881 10.27H29.4835C29.5663 10.6731 29.6297 11.0836 29.6711 11.5008ZM29.3396 9.65465H22.1C21.9293 9.4331 21.7405 9.22721 21.5359 9.03926H15.2706C15.0664 9.22757 14.877 9.43311 14.7065 9.65465H7.63266C7.65929 9.55188 7.68771 9.44911 7.7173 9.34695H3.01127L3.06336 9.17403H0V8.86572H3.16222L3.20839 8.73095H7.91443C7.94994 8.62757 7.98783 8.52542 8.0269 8.42326H28.9448C29.0975 8.82326 29.2295 9.23495 29.3396 9.65465ZM28.6902 7.80849H8.28144C8.32761 7.70511 8.37497 7.60295 8.4241 7.5008H3.71866L3.80212 7.33095H0V7.02326H3.96254L4.03772 6.88541H8.74375C8.80117 6.78203 8.86037 6.67926 8.92075 6.57772H28.0509C28.2865 6.9728 28.5008 7.38388 28.6902 7.80849ZM7.29998 13.9623H29.6717C29.6297 14.3796 29.5663 14.7906 29.4835 15.1931H22.5055C22.615 14.9962 22.7121 14.7906 22.795 14.5777H14.0116C14.0944 14.7906 14.1909 14.9962 14.3004 15.1931H7.48822C7.46715 15.0908 7.44742 14.9883 7.42902 14.8854H2.72358C2.71394 14.8313 2.70467 14.7772 2.69576 14.723H0V14.4153H2.64899C2.6422 14.3669 2.63569 14.3185 2.62946 14.27H7.33549C7.32236 14.1676 7.31052 14.0651 7.29998 13.9623ZM7.63206 15.8085H29.339C29.2295 16.2288 29.0975 16.6393 28.9448 17.0393H20.6977C20.9976 16.8662 21.2787 16.6598 21.5359 16.4239H15.2706C15.5279 16.6598 15.8089 16.8662 16.1088 17.0393H8.0269C7.98804 16.9372 7.95054 16.8347 7.91443 16.7316H3.20839L3.15748 16.5833H0V16.2756H3.05922C3.04307 16.2226 3.02729 16.1694 3.01186 16.1162H7.7173C7.68771 16.014 7.65929 15.9119 7.63206 15.8085ZM8.28144 17.6546H28.6902C28.501 18.0778 28.2875 18.4888 28.0509 18.8854H8.92075C8.86004 18.7838 8.80083 18.6812 8.74316 18.5777H4.03772C4.00812 18.5248 3.97912 18.4719 3.9507 18.4183H0V18.1106H3.79147L3.71866 17.963H8.42469C8.3755 17.8611 8.32774 17.7585 8.28144 17.6553V17.6546ZM10.0159 20.4239C10.1029 20.5285 10.1923 20.6306 10.2834 20.7316H26.6882C27.0376 20.3445 27.3614 19.9333 27.6573 19.5008H9.3144C9.38543 19.6048 9.45765 19.7076 9.53224 19.8085H4.8262L4.94341 19.9654H0V20.2731H5.18552C5.22636 20.3242 5.2678 20.374 5.30983 20.4239H10.0159ZM11.9794 22.27C12.1232 22.3765 12.2694 22.4793 12.4174 22.5777H24.5543C25.0991 22.214 25.6128 21.8022 26.0898 21.347H10.8825C10.992 21.4516 11.1039 21.5543 11.2175 21.6546H6.51149C6.57543 21.7113 6.63995 21.7666 6.70506 21.8208H0V22.1285H7.08687C7.14844 22.1765 7.21118 22.2239 7.27393 22.27H11.98H11.9794ZM16.1331 24.1679C16.892 24.3359 17.6787 24.4239 18.4855 24.4239C20.2934 24.4239 22.0012 23.9808 23.5142 23.1931H13.4569C13.6676 23.3026 13.8813 23.4054 14.0986 23.5008H9.39253C9.47659 23.5377 9.56124 23.574 9.64589 23.6091H0V23.9168H10.4924C11.5324 24.2466 12.6364 24.4239 13.7801 24.4239C14.5869 24.4239 15.3742 24.3359 16.1331 24.1679ZM9.3144 5.96234H27.6573C27.3614 5.52979 27.0376 5.1186 26.6882 4.73157H10.2834C10.1923 4.83249 10.1029 4.93465 10.0153 5.03926H5.30983L5.20564 5.16603H0V5.47372H4.96176C4.91618 5.53342 4.87119 5.59372 4.82679 5.65465H9.53224C9.45765 5.75618 9.38543 5.85895 9.3144 5.96234ZM10.8819 4.11618H26.0892C25.6124 3.66095 25.0989 3.24918 24.5543 2.88542H12.4174C12.2694 2.98449 12.1232 3.08726 11.9794 3.19311H7.27393C7.20882 3.24172 7.1437 3.29034 7.07977 3.34018H0V3.64788H6.69855C6.6358 3.7008 6.57365 3.75434 6.51209 3.80849H11.2175C11.1039 3.9088 10.992 4.01157 10.8819 4.11618ZM13.4575 2.27003H23.5148C21.9537 1.45799 20.2317 1.03652 18.4861 1.03926C17.6787 1.03926 16.892 1.12788 16.1331 1.29588C15.3596 1.12492 14.5709 1.03891 13.7801 1.03926C12.5169 1.03926 11.3028 1.25588 10.1692 1.65465H0V1.96234H14.0986C13.8818 2.05786 13.668 2.16048 13.4575 2.27003ZM65.8537 0.865723C66.2426 0.865723 66.5481 0.966646 66.77 1.16849C67.0015 1.36111 67.1169 1.63003 67.1169 1.97711C67.1169 2.32357 67.0015 2.59741 66.77 2.79926C66.5481 2.99188 66.2426 3.08849 65.8537 3.08849C65.4654 3.08849 65.1552 2.99188 64.9237 2.79926C64.7018 2.59741 64.5905 2.32357 64.5905 1.97711C64.5905 1.63065 64.7018 1.36172 64.9237 1.16849C65.1552 0.966646 65.4654 0.865723 65.8537 0.865723ZM66.9364 4.43003V10.7076C66.9364 11.1119 67.0015 11.3863 67.1311 11.5303C67.2697 11.675 67.5011 11.747 67.8249 11.747V12.0497C67.566 12.0366 67.3069 12.0269 67.0477 12.0208C66.6916 12.0014 66.3351 11.9918 65.9786 11.9919C65.6181 11.9919 65.2523 12.0017 64.8823 12.0208C64.6046 12.0272 64.3269 12.0368 64.0494 12.0497V11.747C64.3732 11.747 64.5999 11.675 64.7296 11.5303C64.8681 11.3863 64.9379 11.1119 64.9379 10.7076V6.16172C64.9379 5.72911 64.8728 5.41095 64.7432 5.20972C64.623 4.99803 64.3916 4.89218 64.0494 4.89218V4.5888C64.3454 4.61772 64.6325 4.63188 64.9101 4.63188C65.2985 4.63188 65.6595 4.61772 65.9928 4.5888C66.335 4.55065 66.6499 4.49772 66.9364 4.43003Z" fill="#FDFDFE"/>
<path fill-rule="evenodd" clip-rule="evenodd" d="M70.8434 5.75432V4.43001C70.5569 4.49771 70.2419 4.55063 69.8998 4.58878C69.557 4.61771 69.196 4.63186 68.8165 4.63186C68.5389 4.63186 68.2524 4.61771 67.9558 4.58878V4.89217C68.2891 4.89217 68.5205 4.99801 68.6502 5.20971C68.7798 5.41155 68.8443 5.72909 68.8443 6.16171V13.3777C68.8443 13.7623 68.7798 14.022 68.6502 14.1568C68.53 14.2916 68.3169 14.3586 68.0115 14.3586V14.662L68.7473 14.6189C69.085 14.6092 69.4228 14.6042 69.7607 14.6042C70.2325 14.6042 70.677 14.6091 71.0932 14.6183C71.5188 14.638 71.8521 14.6522 72.093 14.6614V14.3586C71.7041 14.3586 71.3986 14.2817 71.1766 14.1279C70.9546 13.9839 70.8434 13.6854 70.8434 13.2331V11.7869C70.9653 11.8928 71.1086 11.9802 71.2737 12.0497C71.5697 12.1851 71.8982 12.2522 72.2593 12.2522C72.75 12.2522 73.1893 12.1605 73.5782 11.9777C73.9735 11.7969 74.3212 11.5198 74.5916 11.1697C74.8781 10.8042 75.096 10.3568 75.2439 9.82755C75.4014 9.29832 75.4801 8.68294 75.4801 7.98017C75.4801 7.18201 75.3688 6.51801 75.1469 5.98878C74.9249 5.44971 74.6283 5.05094 74.2583 4.79124C73.8886 4.52185 73.4466 4.38038 72.9951 4.38694C72.4582 4.38694 71.9864 4.53094 71.5792 4.81955C71.2589 5.04417 71.0138 5.35555 70.8434 5.75494V5.75432ZM70.8434 6.25032V11.4817C70.9203 11.5765 71.0133 11.6552 71.121 11.718C71.2968 11.814 71.4957 11.862 71.7183 11.862C72.1344 11.862 72.4629 11.718 72.7039 11.4294C72.9442 11.1309 73.1153 10.7174 73.2171 10.1882C73.3284 9.64971 73.384 9.00971 73.384 8.26878C73.384 7.44171 73.3331 6.79186 73.2313 6.32048C73.1295 5.84909 72.9904 5.51247 72.8146 5.31063C72.6388 5.10817 72.4262 5.00724 72.1758 5.00724C71.8432 5.00724 71.5377 5.14263 71.2601 5.41155C71.0511 5.62078 70.912 5.90078 70.8434 6.25032Z" fill="#FDFDFE"/>
<path d="M78.6671 4.38698C79.056 4.38698 79.3934 4.4399 79.6805 4.54575C79.9765 4.64175 80.1896 4.73836 80.3193 4.83436C80.6336 5.0559 80.8283 4.91129 80.9023 4.40113H81.1936C81.1752 4.67067 81.161 5.00298 81.1521 5.39683C81.1427 5.78206 81.1379 6.29652 81.1379 6.94144H80.8467C80.7992 6.58062 80.7106 6.22695 80.5827 5.8879C80.4648 5.55886 80.2692 5.26596 80.0138 5.03621C79.7729 4.81467 79.4586 4.7039 79.0696 4.7039C78.8015 4.7039 78.5748 4.78636 78.3895 4.95006C78.2042 5.1039 78.1119 5.32975 78.1119 5.62821C78.1119 5.91683 78.1953 6.1716 78.3617 6.39313C78.5286 6.60483 78.7411 6.8116 79.0004 7.01344C79.2685 7.20606 79.5462 7.41283 79.8333 7.63375C80.1387 7.87436 80.4163 8.11498 80.6661 8.3556C80.9056 8.57323 81.1075 8.83196 81.2628 9.12052C81.4114 9.39929 81.4854 9.73098 81.4854 10.1162C81.4854 10.5488 81.3646 10.9285 81.1243 11.2559C80.8834 11.5734 80.5643 11.819 80.1665 11.9919C79.7776 12.1654 79.3425 12.2522 78.8619 12.2522C78.6094 12.2552 78.3575 12.226 78.1119 12.1654C77.9194 12.1156 77.7331 12.0429 77.5566 11.9488C77.4364 11.891 77.3204 11.8381 77.2097 11.7901C77.1153 11.7361 77.0178 11.688 76.9179 11.6461C76.8255 11.6171 76.7421 11.6504 76.6681 11.747C76.6036 11.843 76.5527 11.9777 76.5154 12.1507H76.2241C76.2425 11.843 76.2567 11.4676 76.2656 11.0251C76.275 10.5827 76.2798 9.9956 76.2798 9.26513H76.571C76.6266 9.78452 76.7285 10.2461 76.8765 10.6497C77.0244 11.0448 77.2233 11.3574 77.4731 11.5882C77.7324 11.8097 78.0562 11.9205 78.4451 11.9205C78.6026 11.9205 78.7553 11.8867 78.9033 11.819C79.0513 11.7513 79.1715 11.6405 79.2644 11.4867C79.3662 11.3328 79.4171 11.1359 79.4171 10.8959C79.4171 10.4719 79.2827 10.1205 79.014 9.84175C78.7553 9.56298 78.4221 9.2596 78.0148 8.93283C77.7188 8.68237 77.4364 8.43744 77.1683 8.19683C76.9196 7.96031 76.7046 7.68826 76.5296 7.38883C76.3605 7.08145 76.2742 6.7324 76.2798 6.37836C76.2798 5.94575 76.3905 5.58021 76.6124 5.28175C76.839 4.98018 77.142 4.75024 77.4874 4.61775C77.8627 4.46284 78.2633 4.38449 78.6671 4.38698ZM95.8995 4.54575C95.6586 4.4399 95.3442 4.38698 94.9553 4.38698C94.52 4.38238 94.0905 4.49157 93.7063 4.70452C93.3269 4.90636 93.0261 5.2479 92.8036 5.72913V4.43067C92.5171 4.49775 92.2021 4.55067 91.86 4.58883C91.5267 4.61775 91.1656 4.6319 90.7773 4.6319C90.4997 4.6319 90.2126 4.61775 89.9166 4.58883V4.89221C90.2588 4.89221 90.4902 4.99806 90.6104 5.20975C90.74 5.4116 90.8045 5.72913 90.8045 6.16175V10.7076C90.8045 11.1119 90.7353 11.3864 90.5968 11.5304C90.4671 11.675 90.2404 11.747 89.9166 11.747V12.0497C90.1941 12.0368 90.4718 12.0272 90.7495 12.0208C91.1101 12.0018 91.4711 11.9922 91.8322 11.9919C92.156 11.9919 92.4709 12.0017 92.7757 12.0208C93.0907 12.0307 93.3221 12.0405 93.4701 12.0497V11.747C93.2298 11.747 93.0581 11.675 92.9563 11.5304C92.8545 11.3864 92.8036 11.1119 92.8036 10.7076V6.6959C92.8036 6.37836 92.8639 6.09467 92.9841 5.84421C93.1138 5.58452 93.2801 5.38267 93.4837 5.23867C93.6792 5.09702 93.912 5.02139 94.1503 5.02206C94.3634 5.02206 94.5202 5.07498 94.6221 5.18083C94.7333 5.27683 94.8073 5.41652 94.8446 5.59929C94.8813 5.77221 94.8997 5.97898 94.8997 6.2196V10.7076C94.8997 11.1119 94.8488 11.3864 94.747 11.5304C94.6546 11.675 94.4835 11.747 94.2337 11.747V12.0497C94.4001 12.0405 94.6451 12.0307 94.9695 12.0208C95.6261 11.9819 96.2842 11.9819 96.9407 12.0208C97.2829 12.0307 97.5374 12.0405 97.7038 12.0497V11.747C97.4078 11.747 97.1994 11.675 97.0793 11.5304C96.9591 11.3864 96.8987 11.1119 96.8987 10.7076V6.7599L96.8981 6.71498L96.8957 6.56913C96.917 6.32791 96.9791 6.09249 97.0793 5.87375C97.2089 5.61344 97.3752 5.40667 97.5789 5.25283C97.7825 5.09898 98.0051 5.02206 98.2454 5.02206C98.4857 5.02206 98.6621 5.07498 98.7728 5.18083C98.893 5.27683 98.9717 5.41652 99.009 5.59929C99.0552 5.77221 99.0783 5.97898 99.0783 6.2196V10.7076C99.0783 11.1119 99.0274 11.3864 98.9256 11.5304C98.8332 11.675 98.6621 11.747 98.4117 11.747V12.0497C98.5787 12.0405 98.8237 12.0307 99.1475 12.0208C99.4757 12.0015 99.8044 11.9918 100.133 11.9919C100.476 11.9919 100.823 12.0017 101.174 12.0208C101.526 12.0307 101.79 12.0405 101.966 12.0497V11.747C101.642 11.747 101.411 11.675 101.271 11.5304C101.142 11.3864 101.077 11.1119 101.077 10.7076V6.82575C101.077 6.34452 101.045 5.9599 100.98 5.67129C100.915 5.37283 100.809 5.13283 100.661 4.95006C100.513 4.77652 100.318 4.64236 100.078 4.54575C99.8372 4.4399 99.5222 4.38698 99.1339 4.38698C98.6621 4.38698 98.2176 4.4879 97.8014 4.68975C97.4025 4.8879 97.0793 5.26575 96.8312 5.82329C96.8227 5.77235 96.8128 5.72166 96.8016 5.67129C96.7371 5.37283 96.6306 5.13283 96.4826 4.95006C96.3346 4.77652 96.1398 4.64236 95.8995 4.54575ZM88.8274 10.4768V4.43006C88.5403 4.49775 88.226 4.55067 87.8832 4.58883C87.5506 4.61775 87.1895 4.6319 86.8006 4.6319C86.5229 4.6319 86.2364 4.61775 85.9399 4.58883V4.89221C86.2826 4.89221 86.5141 4.99806 86.6342 5.20975C86.7639 5.4116 86.8284 5.72913 86.8284 6.16175V9.94267C86.8284 10.2602 86.7639 10.5488 86.6342 10.8085C86.5243 11.0463 86.3568 11.2503 86.1482 11.4005C85.954 11.545 85.7204 11.6209 85.4817 11.6171C85.2508 11.6171 85.075 11.5685 84.9543 11.4725C84.8295 11.359 84.7421 11.2077 84.7045 11.0399C84.6652 10.8307 84.6465 10.6179 84.6488 10.4048V4.43006C84.3623 4.49775 84.0474 4.55067 83.7052 4.58883C83.372 4.61775 83.0109 4.6319 82.6226 4.6319C82.3449 4.6319 82.0578 4.61775 81.7618 4.58883V4.89221C82.104 4.89221 82.3355 4.99806 82.4556 5.20975C82.5853 5.4116 82.6498 5.72913 82.6498 6.16175V9.81283C82.6498 10.2842 82.6823 10.6694 82.7475 10.9673C82.812 11.2657 82.9233 11.5064 83.0801 11.6891C83.2192 11.8528 83.4087 11.9876 83.6496 12.0934C83.8899 12.1987 84.2048 12.2522 84.5938 12.2522C85.075 12.2522 85.5095 12.1507 85.8984 11.9488C86.2962 11.7371 86.6064 11.3907 86.8284 10.9101V12.2085C87.1385 12.1292 87.4542 12.0761 87.7726 12.0497C88.1058 12.0208 88.4663 12.0067 88.8552 12.0067C89.1423 12.0067 89.4288 12.0208 89.7159 12.0497V11.747C89.3827 11.747 89.1512 11.6461 89.0216 11.4436C88.8919 11.2319 88.8274 10.9101 88.8274 10.4774V10.4768Z" fill="#FDFDFE"/>
<path fill-rule="evenodd" clip-rule="evenodd" d="M61.9752 4.77652C61.4661 4.51682 60.8736 4.38698 60.1982 4.38698C59.5411 4.38698 58.9533 4.51682 58.4353 4.77652C57.9262 5.03621 57.5237 5.45467 57.2277 6.0319C56.9406 6.60913 56.7968 7.37406 56.7968 8.32667C56.7968 9.27929 56.9406 10.0436 57.2272 10.6214C57.5231 11.1888 57.9257 11.6024 58.4347 11.8621C58.9533 12.1217 59.5411 12.2522 60.1982 12.2522C60.8736 12.2522 61.4661 12.1217 61.9752 11.8621C62.4837 11.6024 62.8821 11.1888 63.1686 10.6214C63.4557 10.0442 63.5989 9.27929 63.5989 8.32667C63.5989 7.37406 63.4557 6.60975 63.1686 6.0319C62.8821 5.45467 62.4837 5.03621 61.9752 4.77652ZM59.2682 5.54144C59.518 4.96421 59.8282 4.67559 60.1982 4.67559C60.5776 4.67559 60.8878 4.96421 61.1281 5.54144C61.3779 6.10882 61.5028 7.03744 61.5028 8.32667C61.5028 9.6159 61.3779 10.5445 61.1281 11.1119C60.8878 11.6793 60.5776 11.9636 60.1982 11.9636C59.8282 11.9636 59.518 11.6793 59.2682 11.1119C59.0184 10.5445 58.8935 9.6159 58.8935 8.32667C58.8935 7.03744 59.0178 6.10882 59.2682 5.54144ZM52.2701 14.763C51.6959 14.763 51.1827 14.7101 50.7293 14.6042C50.2853 14.5082 49.9337 14.3544 49.6744 14.1427C49.4246 13.9402 49.2997 13.6904 49.2997 13.3919C49.2997 13.0934 49.4287 12.8245 49.688 12.5839C49.9473 12.3531 50.3315 12.1704 50.8406 12.0356L50.9649 12.2664C50.8059 12.3904 50.6737 12.5476 50.5765 12.7279C50.5026 12.9014 50.4653 13.0793 50.4653 13.2621C50.4653 13.6664 50.6411 13.9741 50.9933 14.1851C51.3544 14.4067 51.8398 14.5174 52.4507 14.5174C52.8668 14.5174 53.2374 14.4596 53.5612 14.3445C53.8944 14.2288 54.1531 14.0553 54.3384 13.8251C54.5332 13.5937 54.6302 13.3101 54.6302 12.9734C54.6302 12.6848 54.5284 12.4393 54.3248 12.2374C54.1212 12.0448 53.7139 11.9488 53.103 11.9488H52.2423C51.8635 11.9488 51.5296 11.9057 51.2431 11.819C50.9649 11.7328 50.7476 11.5974 50.5902 11.4147C50.4333 11.2227 50.3546 10.9821 50.3546 10.6934C50.3546 10.2891 50.5073 9.93344 50.8127 9.62513C51.0519 9.3839 51.3822 9.15436 51.8037 8.93713C51.5266 8.90131 51.2544 8.83213 50.9927 8.73098C50.5765 8.56729 50.248 8.31682 50.0077 7.98021C49.7668 7.64359 49.6466 7.21098 49.6466 6.68175C49.6466 6.15252 49.7668 5.71929 50.0077 5.38267C50.248 5.03621 50.5765 4.78575 50.9933 4.6319C51.4094 4.46882 51.8812 4.38698 52.4086 4.38698C52.9367 4.38698 53.4085 4.46882 53.8246 4.63252C54.0993 4.73344 54.3349 4.87682 54.5332 5.06144C54.651 4.88482 54.7942 4.72729 54.9629 4.58882C55.2778 4.33898 55.6158 4.21344 55.9763 4.21344C56.2723 4.21344 56.4949 4.30021 56.6429 4.47375C56.8004 4.63682 56.8791 4.85344 56.8791 5.12298C56.8791 5.41159 56.8045 5.62759 56.6565 5.77221C56.5085 5.90759 56.3422 5.97467 56.1569 5.97467C55.994 5.97243 55.8369 5.91104 55.7129 5.80113C55.5827 5.68544 55.5093 5.51252 55.4909 5.28175C55.475 5.07498 55.5306 4.81898 55.6579 4.51252C55.3879 4.6319 55.1796 4.7679 55.0328 4.92113C54.9221 5.03206 54.8254 5.15717 54.7451 5.29344C54.7676 5.32236 54.7895 5.35252 54.8102 5.38267C55.0511 5.71929 55.1713 6.1519 55.1713 6.68113C55.1713 7.21036 55.0511 7.64359 54.8102 7.98021C54.5699 8.31682 54.2413 8.56729 53.8246 8.73098C53.4085 8.89406 52.9367 8.9759 52.4086 8.9759C52.3297 8.97599 52.2507 8.97414 52.1719 8.97036C52.047 9.05836 51.9268 9.1519 51.812 9.25036C51.7406 9.30837 51.6834 9.38296 51.6448 9.46814C51.6063 9.55332 51.5875 9.64672 51.59 9.74082C51.59 10.0485 51.7753 10.2024 52.1452 10.2024H53.6583C54.1673 10.2024 54.6208 10.2651 55.0186 10.3901C55.4258 10.5156 55.7449 10.7224 55.9763 11.011C56.2173 11.2897 56.3374 11.6553 56.3374 12.1076C56.3374 12.579 56.1895 13.0165 55.8935 13.4208C55.6064 13.8251 55.1624 14.147 54.5604 14.3876C53.959 14.6381 53.1954 14.763 52.2701 14.763ZM52.4086 8.71621C52.659 8.71621 52.8526 8.57221 52.9917 8.28359C53.1308 7.98513 53.2001 7.45098 53.2001 6.68175C53.2001 5.9119 53.1308 5.38267 52.9917 5.09406C52.8532 4.79559 52.659 4.64667 52.4092 4.64667C52.1683 4.64667 51.9742 4.79559 51.8262 5.09406C51.6871 5.38267 51.6178 5.9119 51.6178 6.68175C51.6178 7.45098 51.6871 7.98513 51.8262 8.28359C51.9742 8.57221 52.1683 8.71621 52.4086 8.71621ZM47.5025 4.77652C46.9934 4.51682 46.4015 4.38698 45.7261 4.38698C45.069 4.38698 44.4812 4.51682 43.9632 4.77652C43.4542 5.03621 43.0516 5.45467 42.7556 6.0319C42.4685 6.60913 42.3247 7.37406 42.3247 8.32667C42.3247 9.27929 42.4686 10.0436 42.7551 10.6214C43.051 11.1888 43.4536 11.6024 43.9626 11.8621C44.4812 12.1217 45.069 12.2522 45.7261 12.2522C46.4015 12.2522 46.994 12.1217 47.5025 11.8621C48.0116 11.6024 48.4094 11.1888 48.6965 10.6214C48.9836 10.0442 49.1268 9.27929 49.1268 8.32667C49.1268 7.37406 48.9836 6.60975 48.6965 6.0319C48.41 5.45467 48.0116 5.03621 47.5025 4.77652ZM44.7955 5.54144C45.0459 4.96421 45.3555 4.67559 45.7261 4.67559C46.1049 4.67559 46.4151 4.96421 46.6554 5.54144C46.9058 6.10882 47.0307 7.03744 47.0307 8.32667C47.0307 9.6159 46.9058 10.5445 46.656 11.1119C46.4151 11.6793 46.1055 11.9636 45.7261 11.9636C45.3555 11.9636 45.0453 11.6793 44.7955 11.1119C44.5457 10.5445 44.4208 9.6159 44.4208 8.32667C44.4208 7.03744 44.5457 6.10882 44.7955 5.54144Z" fill="#FDFDFE"/>
<path d="M38.586 1.83252V2.12175C38.2717 2.13098 38.0308 2.16913 37.8644 2.23683C37.7883 2.26363 37.7195 2.30911 37.6639 2.36941C37.6082 2.42972 37.5674 2.50309 37.5448 2.58329C37.4897 2.74637 37.4619 3.00667 37.4619 3.36237V10.6934C37.4619 10.9913 37.4803 11.2128 37.5176 11.3574C37.5637 11.5014 37.6472 11.5974 37.7674 11.6461C37.897 11.6941 38.087 11.7181 38.3362 11.7181H39.017C39.3307 11.7181 39.6273 11.6411 39.9049 11.4873C40.1831 11.3334 40.4323 11.1168 40.6543 10.8374C40.8885 10.5271 41.0759 10.1817 41.2102 9.81283C41.3582 9.41898 41.4689 8.98083 41.5428 8.4996H41.8625C41.8347 8.82698 41.8211 9.25037 41.8211 9.76975C41.8211 9.99129 41.8252 10.3131 41.8347 10.7365C41.8442 11.1599 41.8714 11.5981 41.9176 12.0498C41.3858 12.0294 40.8537 12.0197 40.3216 12.0208C39.7297 12.0116 39.2017 12.0067 38.7388 12.0067H37.8508C37.4897 12.0067 37.1008 12.0116 36.6847 12.0208C36.2679 12.0208 35.8471 12.0257 35.4215 12.0356C34.9952 12.0356 34.5927 12.0405 34.2139 12.0498V11.7611C34.5098 11.7421 34.7318 11.7033 34.8798 11.6461C35.0278 11.5882 35.1249 11.4725 35.1716 11.2996C35.2267 11.1261 35.2545 10.8664 35.2545 10.5199V3.36237C35.2545 3.00606 35.2267 2.74698 35.1716 2.58329C35.1534 2.50324 35.1158 2.42937 35.0623 2.36872C35.0088 2.30807 34.9413 2.26267 34.8662 2.23683C34.7182 2.16913 34.5004 2.13098 34.2139 2.12113V1.83252C34.9446 1.86067 35.6758 1.87503 36.4071 1.8756C36.8143 1.8756 37.2121 1.87129 37.6004 1.86144C37.9988 1.8516 38.3274 1.84237 38.586 1.83252Z" fill="#FDFDFE"/>
<path fill-rule="evenodd" clip-rule="evenodd" d="M100.556 23.9753C100.536 23.8719 100.549 23.7371 100.596 23.571L102.551 16.2067C102.238 16.3401 101.914 16.4441 101.584 16.5174C101.244 16.587 100.855 16.6245 100.416 16.6319L100.346 16.8497C100.673 16.8497 100.876 16.9051 100.955 17.0159C101.035 17.1267 101.045 17.299 100.985 17.534L100.522 19.3488C100.493 19.2613 100.443 19.1829 100.377 19.1211C100.263 19.0104 100.107 18.955 99.9077 18.955C99.5088 18.955 99.1394 19.0485 98.8002 19.235C98.459 19.4288 98.152 19.6814 97.8921 19.982C97.6192 20.2867 97.3875 20.6288 97.2037 20.9987C97.0225 21.3586 96.8787 21.7376 96.7745 22.1291C96.68 22.4664 96.6296 22.8154 96.6248 23.1667C96.6248 23.4984 96.6751 23.7716 96.7745 23.9857C96.8746 24.1931 97.0107 24.3488 97.1836 24.4522C97.3564 24.5494 97.5494 24.5974 97.7625 24.5974C98.0881 24.5974 98.3811 24.4977 98.6404 24.2971C98.8996 24.0897 99.1423 23.7716 99.3691 23.3427C99.4638 23.1679 99.5591 22.9716 99.6538 22.7537L99.5881 23.011C99.528 23.2136 99.4879 23.4221 99.4685 23.6331C99.4555 23.8128 99.4685 23.9654 99.5088 24.0897C99.5881 24.4282 99.8343 24.598 100.247 24.598C100.4 24.598 100.556 24.5667 100.716 24.5045C100.876 24.4424 101.025 24.3353 101.164 24.1827C101.311 24.0307 101.427 23.8134 101.514 23.5291L101.753 22.7722H101.564L101.404 23.2387C101.285 23.5919 101.172 23.8301 101.065 23.9544C100.965 24.0725 100.862 24.131 100.755 24.131C100.642 24.131 100.576 24.0793 100.556 23.9753ZM100.024 21.3045C99.9486 21.5574 99.8669 21.798 99.7781 22.0251C99.6118 22.4682 99.4354 22.8485 99.2489 23.1667C99.0695 23.4774 98.8931 23.7193 98.7203 23.8928C98.5474 24.0584 98.3941 24.1414 98.2615 24.1414C98.1348 24.1414 98.0419 24.0793 97.9821 23.955C97.9288 23.8233 97.9022 23.6264 97.9022 23.3636C97.9022 22.99 97.9419 22.6097 98.0218 22.2227C98.1017 21.8288 98.2112 21.4516 98.3509 21.0922C98.4795 20.7549 98.6399 20.4317 98.8298 20.1273C99.0097 19.8368 99.1992 19.6085 99.3987 19.4424C99.6047 19.2762 99.8077 19.1937 100.007 19.1937C100.14 19.1937 100.247 19.2424 100.327 19.339C100.382 19.4017 100.425 19.4928 100.455 19.6134L100.024 21.3045Z" fill="#FDFDFE"/>
<path d="M93.9166 24.4522H92.6895L93.8864 19.982C93.9468 19.7747 93.9663 19.6294 93.9468 19.5464C93.9266 19.4633 93.8668 19.422 93.7668 19.422C93.6407 19.422 93.5241 19.4879 93.4176 19.619C93.311 19.75 93.2015 19.982 93.0884 20.3144L92.9185 20.8011H92.7291L92.9884 20.0233C93.0819 19.7464 93.1979 19.5328 93.3376 19.3802C93.4773 19.2214 93.6307 19.1107 93.797 19.0485C93.9633 18.9864 94.1326 18.955 94.3055 18.955C94.5186 18.955 94.6749 18.9999 94.7743 19.0904C94.8809 19.1802 94.9478 19.2977 94.9744 19.443C95.008 19.5995 95.0146 19.761 94.9939 19.9199C94.9809 20.086 94.9543 20.2485 94.914 20.4073L94.7536 21.0577L94.7944 20.947C94.9809 20.4559 95.1603 20.0651 95.3331 19.7747C95.5131 19.4774 95.7025 19.2664 95.902 19.142C96.0975 19.0185 96.322 18.9538 96.5508 18.955C96.7899 18.955 96.9728 19.0276 97.0995 19.1728C97.2327 19.318 97.299 19.4977 97.299 19.7125C97.299 19.8848 97.2588 20.0479 97.1794 20.1999C97.1018 20.3425 96.9921 20.4635 96.8598 20.5525C96.7337 20.6356 96.5875 20.6768 96.4211 20.6768C96.2548 20.6768 96.1216 20.6319 96.0216 20.542C95.9286 20.4522 95.8819 20.3205 95.8819 20.1482C95.8819 19.9956 95.9156 19.8577 95.9819 19.7328C96.046 19.6112 96.1344 19.5052 96.2412 19.422C96.3477 19.3322 96.4643 19.27 96.5904 19.235C96.5765 19.2207 96.5594 19.2102 96.5407 19.2042C96.5181 19.1969 96.4945 19.1933 96.4709 19.1937C96.3246 19.1937 96.1749 19.2491 96.0216 19.3599C95.8688 19.4633 95.709 19.6331 95.5427 19.8682C95.3763 20.1033 95.207 20.414 95.0342 20.8011C94.8391 21.2588 94.6658 21.7263 94.515 22.2017C94.4399 22.4319 94.3641 22.6793 94.2883 22.9445L93.9166 24.4522Z" fill="#FDFDFE"/>
<path fill-rule="evenodd" clip-rule="evenodd" d="M90.1882 22.8497L90.1462 23.011C90.0832 23.2452 90.0398 23.4847 90.0166 23.7267C89.9964 23.9482 90.0296 24.1347 90.116 24.2867C90.2492 24.494 90.4753 24.598 90.7944 24.598C90.9477 24.598 91.1004 24.5667 91.2537 24.5045C91.413 24.4424 91.5627 24.3353 91.7024 24.1827C91.8421 24.0239 91.9588 23.8024 92.0517 23.5193L92.3015 22.7624H92.1115L91.9617 23.2288C91.8422 23.5882 91.7261 23.827 91.6131 23.9445C91.5 24.0614 91.3899 24.1205 91.2833 24.1205C91.1969 24.1205 91.1407 24.0928 91.1141 24.0374C91.0932 23.967 91.0863 23.8929 91.0939 23.8196C91.1069 23.7317 91.1269 23.645 91.1537 23.5605L92.4412 18.955C92.2408 19.0048 92.0373 19.0395 91.8321 19.059C91.6261 19.0799 91.4035 19.0934 91.1638 19.1002L91.0193 19.6553C91.0133 19.5143 90.9739 19.3772 90.9045 19.2559C90.8525 19.1614 90.7767 19.0834 90.6852 19.0303C90.5937 18.9773 90.49 18.9513 90.3854 18.955C90.0929 18.955 89.8005 19.0485 89.5075 19.235C89.1962 19.4384 88.9169 19.6904 88.6793 19.982C88.4108 20.3001 88.1765 20.6478 87.9808 21.019C87.7846 21.3912 87.6274 21.7842 87.512 22.1913C87.4032 22.5576 87.3461 22.9384 87.3427 23.3217C87.3427 23.7094 87.4291 24.0202 87.602 24.2553C87.7748 24.4836 88.0406 24.5974 88.3999 24.5974C88.6527 24.5974 88.8954 24.5217 89.1286 24.3697C89.3678 24.2171 89.5939 23.9648 89.807 23.6128C89.939 23.4005 90.0657 23.1464 90.1882 22.8497ZM89.3281 23.9027C89.1748 24.0479 89.0387 24.1205 88.9191 24.1205C88.819 24.1205 88.7427 24.0688 88.6894 23.9648C88.6426 23.854 88.6196 23.6713 88.6196 23.4153C88.6196 23.0485 88.6592 22.6719 88.7391 22.2848C88.819 21.8971 88.9256 21.5242 89.0588 21.1648C89.1985 20.8048 89.3512 20.4836 89.5175 20.1999C89.6839 19.9168 89.8502 19.6916 90.0166 19.5254C90.1894 19.3593 90.3522 19.2768 90.5055 19.2768C90.6648 19.2768 90.7778 19.3599 90.8447 19.5254C90.911 19.6756 90.9282 19.8768 90.8962 20.1285L90.6014 21.262L90.6352 21.0817C90.5286 21.5242 90.4019 21.9322 90.2557 22.3057C90.1284 22.6397 89.975 22.9622 89.797 23.2701C89.6371 23.5396 89.4809 23.7507 89.3281 23.9027ZM86.0013 23.571C85.9546 23.7371 85.9416 23.8719 85.9617 23.9753C85.9812 24.0793 86.0481 24.131 86.1612 24.131C86.2677 24.131 86.3707 24.0725 86.4702 23.955C86.5767 23.83 86.6898 23.5919 86.8094 23.2387L86.9692 22.7722H87.1586L86.9195 23.5291C86.833 23.8128 86.7164 24.0307 86.5702 24.1827C86.4459 24.324 86.2922 24.4341 86.1209 24.5045C85.9714 24.5649 85.8125 24.5966 85.6521 24.598C85.2401 24.598 84.9938 24.4282 84.9139 24.0897C84.8718 23.9418 84.8583 23.7866 84.8743 23.6331C84.8873 23.4534 84.9269 23.2454 84.9938 23.011L85.0595 22.7537C84.9642 22.9716 84.8689 23.1679 84.7742 23.3427C84.5481 23.7716 84.3054 24.0897 84.0461 24.2965C83.7933 24.495 83.4845 24.601 83.1677 24.598C82.9551 24.598 82.7622 24.5488 82.5893 24.4528C82.4111 24.3432 82.2686 24.1805 82.1803 23.9857C82.0802 23.7716 82.0305 23.4984 82.0305 23.1667C82.0305 22.8485 82.0802 22.5021 82.1803 22.1291C82.2797 21.7488 82.423 21.3722 82.6089 20.9987C82.7929 20.6289 83.0245 20.2869 83.2973 19.982C83.5702 19.6707 83.8727 19.422 84.2054 19.235C84.5466 19.0478 84.9271 18.9516 85.3129 18.955C85.5124 18.955 85.6687 19.0104 85.7817 19.1211C85.8468 19.1808 85.896 19.2565 85.9279 19.3488L86.3903 17.534C86.4506 17.299 86.4406 17.126 86.3607 17.0153C86.2807 16.9045 86.0777 16.8491 85.7521 16.8491L85.822 16.6319C86.2136 16.6296 86.6042 16.5913 86.9893 16.5174C87.3202 16.4441 87.6441 16.3401 87.9572 16.2067L86.0013 23.571ZM85.1833 22.0251C85.2721 21.7974 85.3543 21.5574 85.4289 21.3045L85.8605 19.6134C85.8397 19.5125 85.7956 19.4183 85.732 19.339C85.6928 19.2913 85.6437 19.2535 85.5885 19.2283C85.5332 19.2032 85.4732 19.1913 85.4129 19.1937C85.2134 19.1937 85.0104 19.2768 84.8044 19.4424C84.6043 19.6085 84.4149 19.8368 84.2355 20.1273C84.0455 20.4314 83.8851 20.7544 83.7567 21.0916C83.6149 21.4577 83.5047 21.8362 83.4275 22.2227C83.3488 22.5975 83.3085 22.9799 83.3074 23.3636C83.3074 23.6264 83.334 23.8233 83.3873 23.9544C83.4471 24.0793 83.5406 24.1414 83.6667 24.1414C83.7999 24.1414 83.9526 24.0584 84.1254 23.8922C84.2989 23.7199 84.4747 23.4774 84.6546 23.166C84.862 22.8022 85.0388 22.4205 85.1833 22.0251Z" fill="#FDFDFE"/>
<path d="M76.5361 24.4522H77.7633L77.8787 23.9833L77.8728 24.0171C77.9994 23.5328 78.1421 23.0663 78.3019 22.6165C78.4572 22.1872 78.6302 21.7651 78.8205 21.3513C79.0004 20.9636 79.1798 20.6251 79.3597 20.3346C79.5391 20.0442 79.712 19.8196 79.8783 19.6602C80.0446 19.494 80.1974 19.4116 80.3371 19.4116C80.4501 19.4116 80.52 19.4528 80.5466 19.5359C80.5742 19.6301 80.5777 19.7303 80.5567 19.8263C80.5368 19.9387 80.5101 20.0497 80.4768 20.1586L79.5693 23.011C79.4758 23.3014 79.4225 23.55 79.4095 23.7574C79.3959 23.9648 79.4326 24.1346 79.519 24.2657C79.5859 24.3697 79.6788 24.4491 79.7984 24.5045C79.9251 24.566 80.0748 24.598 80.2477 24.598C80.4069 24.598 80.5667 24.5666 80.7266 24.5045C80.8929 24.4491 81.0456 24.3451 81.1853 24.1931C81.3315 24.0411 81.4517 23.8196 81.5447 23.5291L81.7939 22.7722H81.6044L81.4446 23.2386C81.3185 23.5986 81.1989 23.8368 81.0859 23.9543C80.9793 24.0725 80.8763 24.131 80.7763 24.131C80.6697 24.131 80.6034 24.086 80.5768 23.9956C80.5502 23.8996 80.5667 23.7574 80.6265 23.571L81.6044 20.5211C81.6909 20.2516 81.7341 19.9993 81.7341 19.7642C81.7406 19.5223 81.6778 19.3285 81.5447 19.1833C81.418 19.0313 81.1918 18.9556 80.8663 18.9556C80.62 18.9556 80.3838 19.011 80.1577 19.1211C79.9316 19.2319 79.712 19.4251 79.4995 19.702C79.2863 19.9716 79.0667 20.3383 78.8406 20.8011C78.6906 21.1133 78.5529 21.4317 78.428 21.7556L78.7607 20.4073C78.8009 20.2411 78.8305 20.075 78.8507 19.9094C78.8708 19.7371 78.8637 19.5808 78.8305 19.4423C78.7988 19.2994 78.7172 19.1737 78.6015 19.0897C78.4884 18.9999 78.3221 18.955 78.1024 18.955C77.8361 18.955 77.5934 19.0313 77.3737 19.1833C77.1547 19.3353 76.9748 19.6153 76.8351 20.0233L76.5758 20.8011H76.7652L76.9351 20.3137C77.0547 19.9753 77.1642 19.7433 77.2642 19.619C77.3708 19.4879 77.4868 19.422 77.6135 19.422C77.7064 19.422 77.7633 19.4497 77.7834 19.5051C77.8094 19.5605 77.8165 19.6294 77.8029 19.7125C77.788 19.8035 77.768 19.8935 77.7431 19.982L76.5361 24.4522Z" fill="#FDFDFE"/>
<path fill-rule="evenodd" clip-rule="evenodd" d="M73.9931 23.011L74.0351 22.8497C73.9285 23.1146 73.801 23.3698 73.6539 23.6128C73.4408 23.9648 73.2146 24.2177 72.9749 24.3697C72.7423 24.5217 72.4995 24.5974 72.2468 24.5974C71.8875 24.5974 71.6217 24.4836 71.4488 24.2553C71.2754 24.0202 71.189 23.7094 71.189 23.3217C71.189 22.9623 71.2458 22.5857 71.3589 22.1913C71.4743 21.7842 71.6315 21.3911 71.8277 21.019C72.0232 20.6477 72.2574 20.3 72.5262 19.982C72.7638 19.6904 73.0431 19.4384 73.3543 19.235C73.6468 19.0485 73.9398 18.955 74.2322 18.955C74.4583 18.955 74.6312 19.0553 74.7513 19.2565C74.8153 19.3593 74.8538 19.4922 74.8662 19.6553L75.0106 19.1002C75.2498 19.0934 75.4729 19.0799 75.6789 19.059C75.892 19.038 76.0945 19.0036 76.2875 18.955L75.0006 23.5611C74.9735 23.6455 74.9535 23.7322 74.9408 23.8202C74.9332 23.8935 74.94 23.9676 74.9609 24.038C74.9875 24.0934 75.0438 24.1211 75.1302 24.1211C75.2367 24.1211 75.3463 24.0626 75.4593 23.9451C75.5724 23.8276 75.689 23.5882 75.8086 23.2294L75.9583 22.7623H76.1478L75.8985 23.5193C75.8056 23.803 75.689 24.0239 75.5493 24.1839C75.425 24.3249 75.2716 24.4347 75.1006 24.5051C74.9545 24.566 74.7987 24.5977 74.6412 24.5986C74.3222 24.5986 74.096 24.4946 73.9629 24.2873C73.8764 24.1353 73.8433 23.9488 73.8634 23.7273C73.8867 23.4853 73.93 23.2452 73.9931 23.011ZM72.7653 24.1205C72.8855 24.1205 73.0217 24.0479 73.175 23.9026C73.3277 23.7506 73.484 23.5396 73.6438 23.27C73.803 23.0005 73.9563 22.6793 74.1026 22.3057C74.2488 21.9322 74.3755 21.5242 74.482 21.0811L74.4483 21.262L74.7431 20.1291C74.7744 19.8768 74.7573 19.6756 74.6916 19.526C74.6247 19.3599 74.5116 19.2768 74.3518 19.2768C74.199 19.2768 74.0363 19.3599 73.8634 19.5254C73.6971 19.6916 73.5307 19.9162 73.3644 20.1999C73.1981 20.483 73.0447 20.8048 72.905 21.1642C72.771 21.5284 72.6643 21.9028 72.586 22.2842C72.5078 22.6558 72.4677 23.0349 72.4664 23.4153C72.4664 23.6713 72.4895 23.8546 72.5363 23.9648C72.5895 24.0688 72.6659 24.1205 72.7653 24.1205Z" fill="#FDFDFE"/>
<path d="M71.881 19.3076L71.9112 19.1002H70.7226L71.1926 17.3993C70.9959 17.4496 70.7958 17.4844 70.5941 17.5033C70.3881 17.5236 70.1649 17.5377 69.9258 17.5445L69.4966 19.1002H68.5886L68.5388 19.3076H69.4398L68.4187 23.0109C68.3323 23.3149 68.3027 23.5882 68.3293 23.83C68.3624 24.0651 68.4554 24.2522 68.6087 24.39C68.7679 24.5285 68.9976 24.598 69.2971 24.598C69.6363 24.598 69.9288 24.5045 70.175 24.3174C70.4213 24.1309 70.6142 23.8233 70.7539 23.3943L70.9534 22.7722H70.7634L70.6142 23.1974C70.4941 23.5433 70.3615 23.7851 70.2147 23.9236C70.075 24.062 69.9353 24.1309 69.7956 24.1309C69.7407 24.1328 69.6861 24.1216 69.636 24.0981C69.5859 24.0747 69.5417 24.0396 69.5067 23.9956C69.4398 23.9063 69.4333 23.7648 69.4866 23.5709L70.6651 19.3076H71.881ZM68.5767 17.0362C68.5104 17.2159 68.4205 17.4793 68.3074 17.8245C68.2008 18.1629 68.0949 18.606 67.9883 19.1519H67.7888C67.8084 19.0553 67.822 18.9549 67.8285 18.8516C67.8413 18.7588 67.848 18.6653 67.8486 18.5716C67.8486 18.3014 67.7954 18.0669 67.6888 17.8663C67.5865 17.6559 67.4222 17.485 67.22 17.3783C67.014 17.254 66.7476 17.1919 66.422 17.1919C66.0692 17.1919 65.7697 17.2885 65.524 17.4823C65.2778 17.6688 65.1546 17.9697 65.1546 18.3845C65.1546 18.6405 65.2109 18.8829 65.3239 19.1106C65.4441 19.3322 65.5939 19.55 65.7732 19.7642C65.9597 19.9716 66.1556 20.1826 66.3616 20.3968C66.5682 20.6042 66.7612 20.8189 66.9406 21.0399C67.1199 21.2614 67.2667 21.4965 67.3798 21.7451C67.4994 21.9876 67.5592 22.2534 67.5592 22.5439C67.5592 22.9106 67.4727 23.2251 67.2999 23.4879C67.1313 23.746 66.9097 23.9621 66.6511 24.1205C66.38 24.2816 66.0876 24.4004 65.7833 24.4731C65.4903 24.5544 65.1885 24.5964 64.8853 24.598C64.5858 24.598 64.3366 24.5734 64.1371 24.5254C63.9666 24.492 63.8018 24.4325 63.6481 24.3488C63.5175 24.2743 63.3877 24.1984 63.2586 24.1211C63.1999 24.0699 63.1321 24.031 63.0591 24.0066C63.0126 23.9823 62.9619 23.9681 62.91 23.9648C62.8229 23.9648 62.7501 24.0097 62.6903 24.1002C62.6119 24.2353 62.5451 24.3774 62.4909 24.5248H62.2908C62.4556 24.103 62.5924 23.67 62.7004 23.2288C62.7797 22.9106 62.8697 22.5131 62.9697 22.0356H63.1692C63.1414 22.1729 63.1181 22.3113 63.0994 22.4503C63.0793 22.5888 63.0727 22.7273 63.0793 22.8657C63.0994 23.3494 63.242 23.7229 63.5084 23.9857C63.7813 24.2485 64.1803 24.3796 64.7054 24.3796C65.1511 24.3796 65.4873 24.2829 65.7135 24.0897C65.9396 23.8891 66.0526 23.5986 66.0526 23.2183C66.0526 22.9279 65.9994 22.6645 65.8928 22.43C65.7922 22.1861 65.6578 21.9589 65.4938 21.7556C65.3247 21.5451 65.1484 21.3411 64.9652 21.1439C64.7816 20.9466 64.6051 20.7424 64.436 20.5316C64.2727 20.3221 64.1353 20.0922 64.027 19.8473C63.9181 19.5853 63.8638 19.3024 63.8677 19.0171C63.8677 18.6719 63.9376 18.3709 64.0773 18.1149C64.218 17.8652 64.4083 17.6496 64.6355 17.4823C64.8685 17.3094 65.1284 17.1795 65.4039 17.0983C65.6718 17.0104 65.951 16.9649 66.232 16.9636C66.5913 16.9636 66.8873 17.0085 67.1199 17.0989C67.3532 17.1882 67.5527 17.2959 67.719 17.4202L67.9084 17.5445C67.9682 17.5722 68.015 17.5857 68.0481 17.5857C68.1411 17.5857 68.2512 17.4029 68.3772 17.0362H68.5767Z" fill="#FDFDFE"/>
<path fill-rule="evenodd" clip-rule="evenodd" d="M58.9456 23.9753C58.9254 23.8719 58.9391 23.7371 58.9858 23.571L60.941 16.2067C60.628 16.3401 60.3041 16.4441 59.9732 16.5174C59.634 16.587 59.2451 16.6245 58.8059 16.6319L58.736 16.8497C59.0616 16.8497 59.2652 16.9051 59.3445 17.0159C59.4245 17.1267 59.4345 17.299 59.3747 17.534L58.9118 19.3488C58.8828 19.2613 58.8326 19.1829 58.7662 19.1211C58.6531 19.0104 58.4969 18.955 58.2974 18.955C57.8978 18.955 57.529 19.0485 57.1898 19.235C56.8486 19.4288 56.5416 19.6814 56.2818 19.982C56.0088 20.2867 55.7772 20.6288 55.5933 20.9987C55.4121 21.3586 55.2683 21.7376 55.1642 22.1291C55.0694 22.4664 55.0191 22.8154 55.0144 23.1667C55.0144 23.4984 55.0647 23.7716 55.1642 23.9857C55.2642 24.1931 55.4004 24.3488 55.5732 24.4522C55.7461 24.5494 55.939 24.5974 56.1521 24.5974C56.4777 24.5974 56.7707 24.4977 57.03 24.2971C57.2893 24.0897 57.532 23.7716 57.7581 23.3427C57.8528 23.1679 57.9481 22.9716 58.0434 22.7537L57.9783 23.011C57.9178 23.2135 57.8775 23.422 57.8582 23.6331C57.8423 23.7866 57.8557 23.9417 57.8978 24.0897C57.9777 24.4282 58.2234 24.598 58.6366 24.598C58.7893 24.598 58.9456 24.5667 59.1054 24.5045C59.2652 24.4424 59.4144 24.3353 59.5541 24.1827C59.7009 24.0307 59.8169 23.8134 59.9034 23.5291L60.1431 22.7722H59.9537L59.7938 23.2387C59.6743 23.5919 59.5612 23.8301 59.4547 23.9544C59.3546 24.0725 59.2516 24.131 59.1451 24.131C59.0326 24.131 58.9657 24.0793 58.9456 23.9753ZM58.4128 21.3045C58.3382 21.5574 58.2565 21.798 58.1672 22.0251C58.0014 22.4682 57.825 22.8485 57.6385 23.1667C57.4592 23.4774 57.2828 23.7193 57.1099 23.8928C56.9371 24.0584 56.7843 24.1414 56.6506 24.1414C56.5245 24.1414 56.4315 24.0793 56.3718 23.955C56.3185 23.8233 56.2918 23.6264 56.2918 23.3636C56.2918 22.99 56.3315 22.6097 56.4114 22.2227C56.4913 21.8288 56.6008 21.4516 56.7405 21.0922C56.8693 20.7549 57.0299 20.4316 57.22 20.1273C57.3994 19.8368 57.5888 19.6085 57.7883 19.4424C57.9943 19.2762 58.1973 19.1937 58.3968 19.1937C58.53 19.1937 58.6366 19.2424 58.7165 19.339C58.7721 19.4017 58.8148 19.4928 58.8443 19.6134L58.4128 21.3045Z" fill="#FDFDFE"/>
<path d="M50.7471 24.4522H49.52L50.7276 19.982C50.7542 19.8854 50.7738 19.7956 50.7868 19.7125C50.8016 19.643 50.7948 19.5703 50.7673 19.5051C50.7471 19.4497 50.6903 19.422 50.5974 19.422C50.4713 19.422 50.3547 19.4879 50.2481 19.619C50.1487 19.7433 50.0386 19.9753 49.919 20.3143L49.7497 20.8011H49.5603L49.8196 20.0233C49.9593 19.6153 50.1392 19.3353 50.3582 19.1833C50.5772 19.0313 50.82 18.9556 51.0863 18.9556C51.3059 18.9556 51.4723 18.9999 51.5853 19.0897C51.7013 19.1736 51.7831 19.2993 51.815 19.4423C51.8482 19.5808 51.8547 19.7365 51.8352 19.9094C51.8148 20.0771 51.7848 20.2433 51.7452 20.4073L51.4125 21.7562C51.5534 21.3937 51.6907 21.0762 51.8251 20.8011C52.0512 20.3383 52.2702 19.9716 52.4833 19.702C52.6964 19.4251 52.9155 19.2319 53.1416 19.1211C53.3683 19.0103 53.6039 18.955 53.8502 18.955C54.1757 18.955 54.4025 19.0313 54.5285 19.1833C54.6617 19.3285 54.7251 19.5217 54.718 19.7642C54.718 19.9993 54.6753 20.2516 54.5883 20.5211L53.611 23.571C53.5506 23.7574 53.5341 23.8996 53.5607 23.9956C53.5873 24.086 53.6542 24.131 53.7608 24.131C53.8602 24.131 53.9632 24.0725 54.0698 23.955C54.1828 23.8368 54.3024 23.598 54.4291 23.2386L54.5889 22.7722H54.7783L54.5285 23.5291C54.4356 23.8196 54.3154 24.0411 54.1698 24.1937C54.0444 24.336 53.8864 24.443 53.7105 24.5045C53.5576 24.5655 53.3953 24.5972 53.2316 24.598C53.0587 24.598 52.909 24.5666 52.7829 24.5045C52.6627 24.4491 52.5698 24.3691 52.5035 24.2657C52.417 24.1346 52.3803 23.9648 52.3934 23.7574C52.407 23.55 52.4603 23.3014 52.5532 23.011L53.4613 20.1586C53.4944 20.0479 53.521 19.9371 53.5412 19.8263C53.5621 19.7303 53.5586 19.6302 53.5311 19.5359C53.5045 19.4528 53.4346 19.4116 53.3216 19.4116C53.1818 19.4116 53.0285 19.4946 52.8628 19.6602C52.6964 19.8196 52.523 20.0442 52.3436 20.3346C52.1445 20.6619 51.9647 21.0014 51.805 21.3513C51.6256 21.739 51.4522 22.1599 51.2858 22.6165C51.126 23.0657 50.9839 23.5328 50.8572 24.0171L50.8632 23.9833L50.7471 24.4522Z" fill="#FDFDFE"/>
<path fill-rule="evenodd" clip-rule="evenodd" d="M47.0189 22.8497L46.9774 23.011C46.9146 23.2453 46.871 23.4847 46.8472 23.7267C46.8271 23.9482 46.8602 24.1347 46.9466 24.2867C47.0798 24.4941 47.306 24.5981 47.6256 24.5981C47.7962 24.5968 47.9648 24.5593 48.1209 24.4879C48.2771 24.4164 48.4175 24.3126 48.5337 24.1827C48.6734 24.0239 48.7894 23.8024 48.8829 23.5193L49.1315 22.7624H48.9421L48.7929 23.2288C48.6728 23.5882 48.5562 23.827 48.4437 23.9445C48.3306 24.0614 48.2205 24.1205 48.1146 24.1205C48.0276 24.1205 47.9713 24.0928 47.9447 24.0374C47.9239 23.967 47.917 23.8929 47.9246 23.8196C47.9382 23.7297 47.9577 23.6436 47.9849 23.5605L49.2718 18.955C49.0717 19.0047 48.8683 19.0395 48.6633 19.059C48.4567 19.0799 48.2341 19.0934 47.9944 19.1002L47.85 19.6553C47.8438 19.5144 47.8044 19.3772 47.7351 19.2559C47.6832 19.1615 47.6075 19.0835 47.5161 19.0305C47.4247 18.9775 47.3212 18.9514 47.2166 18.955C46.9236 18.955 46.6305 19.0485 46.3381 19.235C46.0457 19.4221 45.7698 19.6707 45.51 19.9821C45.2412 20.3 45.007 20.6477 44.8115 21.019C44.6152 21.3912 44.4581 21.7842 44.3426 22.1913C44.2338 22.5576 44.1768 22.9384 44.1733 23.3217C44.1733 23.7094 44.2598 24.0202 44.4326 24.2553C44.6055 24.4836 44.8718 24.5974 45.2306 24.5974C45.4833 24.5974 45.7266 24.5217 45.9587 24.3697C46.1984 24.2171 46.4251 23.9648 46.6376 23.6128C46.7697 23.4005 46.8963 23.1464 47.0189 22.8497ZM46.1588 23.9027C46.006 24.0479 45.8693 24.1205 45.7497 24.1205C45.6497 24.1205 45.5733 24.0688 45.52 23.9648C45.4739 23.8541 45.4502 23.6713 45.4502 23.4153C45.4502 23.0485 45.4904 22.6719 45.5704 22.2848C45.6497 21.8971 45.7562 21.5242 45.8894 21.1648C46.0291 20.8048 46.1818 20.4836 46.3482 20.1999C46.5145 19.9168 46.6809 19.6916 46.8472 19.5254C47.02 19.3593 47.1828 19.2768 47.3362 19.2768C47.496 19.2768 47.6084 19.3599 47.6753 19.5254C47.7416 19.6756 47.7582 19.8768 47.7268 20.1285L47.432 21.2621L47.4658 21.0817C47.3592 21.5242 47.2331 21.9322 47.0869 22.3057C46.9401 22.6787 46.7874 23.0005 46.6276 23.2701C46.4678 23.5396 46.3115 23.7507 46.1588 23.9027Z" fill="#FDFDFE"/>
<path d="M41.505 24.4522H40.2778L41.4748 19.982C41.5346 19.7747 41.5547 19.6294 41.5346 19.5464C41.515 19.4633 41.4552 19.422 41.3552 19.422C41.2291 19.422 41.1125 19.4879 41.0059 19.619C40.8994 19.75 40.7899 19.982 40.6768 20.3144L40.5069 20.8011H40.3175L40.5768 20.0233C40.6703 19.7464 40.7863 19.5328 40.926 19.3802C41.0657 19.2214 41.219 19.1107 41.3854 19.0485C41.5511 18.9864 41.721 18.955 41.8945 18.955C42.107 18.955 42.2632 18.9999 42.3627 19.0904C42.4685 19.1786 42.5397 19.304 42.5628 19.443C42.5959 19.5882 42.6024 19.747 42.5823 19.9199C42.5693 20.086 42.5427 20.2485 42.5024 20.4073L42.3426 21.0577L42.3586 21.0128L42.3828 20.947C42.5693 20.4559 42.7487 20.0651 42.9215 19.7747C43.1015 19.4774 43.2909 19.2664 43.4904 19.142C43.6858 19.0185 43.9104 18.9538 44.1391 18.955C44.3783 18.955 44.5612 19.0276 44.6879 19.1728C44.8205 19.318 44.8874 19.4977 44.8874 19.7125C44.8874 19.8848 44.8471 20.0479 44.7672 20.1999C44.6898 20.3425 44.5803 20.4635 44.4481 20.5525C44.3163 20.637 44.1638 20.6802 44.0089 20.6768C43.8432 20.6768 43.71 20.6319 43.6099 20.542C43.517 20.4522 43.4702 20.3205 43.4702 20.1482C43.4702 19.9956 43.5034 19.8577 43.5703 19.7328C43.6366 19.6085 43.723 19.5051 43.8296 19.422C43.9361 19.3322 44.0521 19.27 44.1788 19.235C44.1648 19.2208 44.1477 19.2103 44.1291 19.2042C44.1158 19.1995 44.1021 19.1964 44.0882 19.195C44.0784 19.194 44.0685 19.1936 44.0586 19.1937C43.913 19.1937 43.7627 19.2491 43.6099 19.3599C43.4572 19.4633 43.2974 19.6331 43.1311 19.8682C42.9653 20.1033 42.7954 20.414 42.622 20.8011C42.4269 21.2588 42.2539 21.7262 42.1034 22.2017C42.0282 22.4313 41.9525 22.6793 41.8767 22.9445L41.505 24.4522Z" fill="#FDFDFE"/>
<path fill-rule="evenodd" clip-rule="evenodd" d="M39.6385 17.4928C39.3058 17.2436 38.7737 17.1193 38.042 17.1193C37.8159 17.1193 37.5897 17.123 37.363 17.1297C37.144 17.1365 36.8912 17.1402 36.6053 17.1402H36.1063C35.9264 17.1328 35.7571 17.1297 35.5972 17.1297C35.4642 17.1237 35.3312 17.1167 35.1983 17.1088L35.1485 17.3162C35.4078 17.3162 35.5842 17.3507 35.6771 17.4202C35.7772 17.4817 35.8234 17.579 35.8168 17.7107C35.8034 17.8786 35.7767 18.0451 35.7369 18.2085L34.4198 23.3531C34.3606 23.6017 34.2937 23.7888 34.2203 23.9131C34.1541 24.032 34.0474 24.1209 33.9214 24.1624C33.7947 24.2036 33.6183 24.2313 33.3922 24.2448L33.3525 24.4522C33.465 24.4461 33.6018 24.4424 33.761 24.4424C33.9208 24.435 34.0907 24.4319 34.2701 24.4319C34.7722 24.416 35.2747 24.4195 35.7766 24.4424C36.0495 24.4485 36.2993 24.4528 36.5254 24.4528C36.9575 24.4528 37.3666 24.4073 37.7525 24.3174C38.1083 24.2336 38.4485 24.0901 38.76 23.8928C39.0387 23.7203 39.2745 23.4821 39.4485 23.1974C39.6213 22.9205 39.7078 22.5962 39.7078 22.2227C39.7078 21.8005 39.542 21.4374 39.2093 21.1334C38.8838 20.8288 38.3676 20.6491 37.6626 20.5937C38.1024 20.5281 38.5298 20.3917 38.9293 20.1894C39.3023 19.9888 39.5947 19.7433 39.8078 19.4528C40.0223 19.1771 40.1386 18.8327 40.1369 18.4781C40.1369 18.0633 39.9718 17.7347 39.6385 17.4928ZM36.4538 20.7291L35.7867 23.3531C35.747 23.5254 35.7204 23.6781 35.7073 23.8091C35.7002 23.9408 35.7334 24.0411 35.8068 24.1107C35.8802 24.1796 36.0163 24.2141 36.2158 24.2141C36.6882 24.2141 37.0742 24.1205 37.3731 23.9341C37.666 23.755 37.8994 23.4873 38.042 23.1667C38.1882 22.8344 38.261 22.4608 38.261 22.0467C38.261 21.7901 38.2178 21.5654 38.1314 21.3722C38.0553 21.1759 37.9184 21.0116 37.7425 20.9051C37.5631 20.7876 37.3234 20.7291 37.0238 20.7291H36.4538ZM36.4988 20.5525H36.9546C37.3334 20.5525 37.656 20.4522 37.9218 20.2516C38.1947 20.0442 38.4013 19.7747 38.541 19.443C38.6865 19.1144 38.7612 18.7567 38.76 18.395C38.76 18.0491 38.6937 17.7833 38.5606 17.5962C38.4345 17.4097 38.2113 17.3162 37.8916 17.3162C37.6596 17.3162 37.4933 17.3648 37.3932 17.4614C37.2938 17.5513 37.2073 17.7482 37.1339 18.0522L36.4988 20.5525Z" fill="#FDFDFE"/>
</g>
<defs>
<clipPath id="clip0_117_32">
<rect width="103" height="24" fill="white" transform="translate(0 0.865723)"/>
</clipPath>
</defs>
</svg>
