<svg width="30" height="30" viewBox="0 0 30 30" fill="none" xmlns="http://www.w3.org/2000/svg">
<path d="M29.7179 15.3077C29.7384 14.8977 29.7384 14.4869 29.7179 14.0769H7.2538C7.24907 14.1791 7.24493 14.2819 7.24256 14.3846H2.53652L2.53416 14.5385H0V14.8462H2.53356L2.53711 15H7.24256C7.24493 15.1034 7.24848 15.2056 7.2544 15.3077H13.7037C13.6793 15.1036 13.667 14.898 13.667 14.6923H23.1383C23.1383 14.9009 23.1265 15.1065 23.1016 15.3077H29.7179ZM29.6711 13.4616H22.9897C22.9378 13.2522 22.8725 13.0466 22.7944 12.8462H14.0127C13.9352 13.0456 13.8695 13.2505 13.8174 13.4616H7.29998C7.31063 13.3588 7.32247 13.256 7.33549 13.1539H2.62946L2.64959 13.0037H0V12.696H2.69635L2.72358 12.5385H7.42962C7.44737 12.4357 7.4675 12.3329 7.48881 12.2308H29.4835C29.5663 12.6339 29.6297 13.0443 29.6711 13.4616ZM29.3396 11.6154H22.1C21.9293 11.3938 21.7405 11.188 21.5359 11H15.2706C15.0664 11.1883 14.877 11.3939 14.7065 11.6154H7.63266C7.65929 11.5126 7.68771 11.4099 7.7173 11.3077H3.01127L3.06336 11.1348H0V10.8265H3.16222L3.20839 10.6917H7.91443C7.94994 10.5883 7.98783 10.4862 8.0269 10.384H28.9448C29.0975 10.784 29.2295 11.1957 29.3396 11.6154ZM28.6902 9.76924H8.28144C8.32761 9.66586 8.37497 9.56371 8.4241 9.46155H3.71866L3.80212 9.29171H0V8.98401H3.96254L4.03772 8.84617H8.74375C8.80117 8.74278 8.86037 8.64001 8.92075 8.53847H28.0509C28.2865 8.93355 28.5008 9.34463 28.6902 9.76924ZM7.29998 15.9231H29.6717C29.6297 16.3403 29.5663 16.7514 29.4835 17.1539H22.5055C22.615 16.9569 22.7121 16.7514 22.795 16.5385H14.0116C14.0944 16.7514 14.1909 16.9569 14.3004 17.1539H7.48822C7.46715 17.0516 7.44742 16.949 7.42902 16.8462H2.72358C2.71394 16.7921 2.70466 16.7379 2.69576 16.6837H0V16.376H2.64899C2.6422 16.3276 2.63569 16.2792 2.62946 16.2308H7.33549C7.32236 16.1284 7.31052 16.0258 7.29998 15.9231ZM7.63206 17.7692H29.339C29.2295 18.1896 29.0975 18.6 28.9448 19H20.6977C20.9976 18.8269 21.2787 18.6206 21.5359 18.3846H15.2706C15.5279 18.6206 15.8089 18.8269 16.1088 19H8.0269C7.98804 18.898 7.95054 18.7954 7.91443 18.6923H3.20839L3.15748 18.544H0V18.2363H3.05922C3.04307 18.1833 3.02729 18.1302 3.01186 18.0769H7.7173C7.68771 17.9748 7.65929 17.8726 7.63206 17.7692ZM8.28144 19.6154H28.6902C28.501 20.0386 28.2875 20.4496 28.0509 20.8462H8.92075C8.86004 20.7446 8.80083 20.642 8.74316 20.5385H4.03772C4.00812 20.4856 3.97912 20.4326 3.9507 20.3791H0V20.0714H3.79147L3.71866 19.9237H8.42469C8.3755 19.8219 8.32774 19.7187 8.28144 19.6154ZM10.0159 22.3846C10.1029 22.4892 10.1923 22.5914 10.2834 22.6923H26.6882C27.0376 22.3053 27.3614 21.8941 27.6573 21.4616H9.3144C9.38543 21.5656 9.45765 21.6683 9.53224 21.7692H4.8262L4.94341 21.9262H0V22.2339H5.18552C5.22636 22.2849 5.2678 22.3348 5.30983 22.3846H10.0159ZM11.9794 24.2308C12.1232 24.3372 12.2694 24.44 12.4174 24.5385H24.5543C25.0991 24.1747 25.6128 23.763 26.0898 23.3077H10.8825C10.992 23.4123 11.1039 23.5151 11.2175 23.6154H6.51149C6.57543 23.672 6.63995 23.7274 6.70506 23.7816H0V24.0892H7.08687C7.14844 24.1372 7.21118 24.1846 7.27393 24.2308H11.9794ZM16.1331 26.1286C16.892 26.2966 17.6787 26.3846 18.4855 26.3846C20.2934 26.3846 22.0012 25.9416 23.5142 25.1539H13.4569C13.6676 25.2634 13.8813 25.3662 14.0986 25.4616H9.39253C9.47659 25.4985 9.56124 25.5348 9.64589 25.5699H0V25.8776H10.4924C11.5324 26.2074 12.6364 26.3846 13.7801 26.3846C14.5869 26.3846 15.3742 26.2966 16.1331 26.1286ZM9.3144 7.92309H27.6573C27.3614 7.49055 27.0376 7.07935 26.6882 6.69232H10.2834C10.1923 6.79324 10.1029 6.8954 10.0153 7.00001H5.30983L5.20564 7.12678H0V7.43447H4.96176C4.91618 7.49417 4.87119 7.55447 4.82679 7.6154H9.53224C9.45765 7.71694 9.38543 7.81971 9.3144 7.92309ZM10.8819 6.07694H26.0892C25.6124 5.6217 25.0989 5.20993 24.5543 4.84617H12.4174C12.2694 4.94524 12.1232 5.04801 11.9794 5.15386H7.27393C7.20882 5.20247 7.1437 5.25109 7.07977 5.30094H0V5.60863H6.69855C6.63581 5.66155 6.57365 5.71509 6.51209 5.76924H11.2175C11.1039 5.86955 10.992 5.97232 10.8819 6.07694ZM13.4575 4.23078H23.5148C21.9537 3.41874 20.2317 2.99727 18.4861 3.00001C17.6787 3.00001 16.892 3.08863 16.1331 3.25663C15.3596 3.08568 14.5709 2.99966 13.7801 3.00001C12.5169 3.00001 11.3028 3.21663 10.1692 3.6154H0V3.92309H14.0986C13.8818 4.01861 13.668 4.12123 13.4575 4.23078Z" fill="#3657C3"/>
</svg>
