<svg width="24" height="25" viewBox="0 0 24 25" fill="none" xmlns="http://www.w3.org/2000/svg">
<path d="M4.6155 19.8657C4.15517 19.8657 3.77083 19.7116 3.4625 19.4032C3.15417 19.0949 3 18.7106 3 18.2502V7.48122C3 7.02089 3.15417 6.63656 3.4625 6.32822C3.77083 6.01989 4.15517 5.86572 4.6155 5.86572H19.3845C19.8448 5.86572 20.2292 6.01989 20.5375 6.32822C20.8458 6.63656 21 7.02089 21 7.48122V18.2502C21 18.7106 20.8458 19.0949 20.5375 19.4032C20.2292 19.7116 19.8448 19.8657 19.3845 19.8657H4.6155ZM12 12.9812L4 7.75022V18.2502C4 18.4297 4.05767 18.5772 4.173 18.6927C4.2885 18.8081 4.436 18.8657 4.6155 18.8657H19.3845C19.564 18.8657 19.7115 18.8081 19.827 18.6927C19.9423 18.5772 20 18.4297 20 18.2502V7.75022L12 12.9812ZM12 11.8657L19.6923 6.86572H4.30775L12 11.8657ZM4 7.75022V6.86572V18.2502C4 18.4297 4.05767 18.5772 4.173 18.6927C4.2885 18.8081 4.436 18.8657 4.6155 18.8657H4V7.75022Z" fill="#FDFDFE"/>
</svg>
