<svg width="93" height="93" viewBox="0 0 93 93" fill="none" xmlns="http://www.w3.org/2000/svg">
<rect x="1.04102" y="0.751465" width="91" height="91" rx="7.5" fill="#F7F9FF"/>
<rect x="1.04102" y="0.751465" width="91" height="91" rx="7.5" stroke="#87A5EF"/>
<path fill-rule="evenodd" clip-rule="evenodd" d="M52.7861 53.1305C52.8539 53.2879 52.9635 53.4238 53.103 53.5233C53.2425 53.6227 53.4067 53.6821 53.5776 53.6948C53.7485 53.7075 53.9196 53.6731 54.0723 53.5954C54.2251 53.5177 54.3535 53.3996 54.4439 53.2539L56.7153 49.5936L60.9355 50.4578C61.1033 50.4922 61.2773 50.4799 61.4387 50.4222C61.6 50.3646 61.7425 50.2639 61.8507 50.131C61.9588 49.9982 62.0285 49.8382 62.0521 49.6685C62.0758 49.4988 62.0525 49.3259 61.9847 49.1685L58.8506 41.8917C58.9464 41.851 59.0445 41.8092 59.1479 41.765C60.7641 41.0729 61.7097 39.4348 61.5011 37.6891C61.4623 37.3648 61.4261 37.0763 61.3937 36.8173C61.2635 35.7785 61.198 35.257 61.2683 34.8585C61.3386 34.4601 61.5783 33.9924 62.0561 33.0608C62.1753 32.8284 62.308 32.5698 62.4553 32.2782C63.2485 30.709 62.92 28.8464 61.638 27.6433C61.4 27.4198 61.1867 27.2221 60.9955 27.0445C60.2278 26.3324 59.8424 25.975 59.6403 25.6246C59.4379 25.2742 59.3211 24.7619 59.0882 23.7412C59.0301 23.4867 58.9654 23.2031 58.8909 22.885C58.4899 21.1731 57.041 19.9574 55.2855 19.8598C54.9595 19.8417 54.6691 19.8273 54.4083 19.8142C53.3626 19.7622 52.8377 19.7361 52.4575 19.5977C52.0774 19.4593 51.6585 19.1419 50.8239 18.5096C50.5907 18.3325 50.357 18.1562 50.1227 17.9806C48.715 16.9271 46.8239 16.927 45.4162 17.9806C45.1819 18.1562 44.9482 18.3325 44.7149 18.5096C43.8803 19.1419 43.4615 19.4593 43.0814 19.5977C42.7012 19.7361 42.1762 19.7622 41.1305 19.8142C40.8697 19.8273 40.5794 19.8417 40.2534 19.8598C38.4979 19.9574 37.0489 21.1733 36.648 22.885C36.5735 23.2031 36.5088 23.4865 36.4506 23.7412C36.2178 24.7619 36.101 25.2744 35.8986 25.6246C35.6963 25.975 35.311 26.3324 34.5434 27.0445C34.3521 27.2221 34.1389 27.4198 33.9009 27.6433C32.619 28.8465 32.2904 30.7092 33.0835 32.2783C33.2308 32.5696 33.3635 32.8283 33.4825 33.0605C33.9603 33.9923 34.2002 34.46 34.2705 34.8584C34.3408 35.2567 34.2753 35.7782 34.1451 36.817C34.1126 37.0761 34.0764 37.3647 34.0376 37.6891C33.829 39.4348 34.7746 41.0729 36.3909 41.765C36.6911 41.8935 36.959 42.0065 37.1996 42.1079L37.4098 42.1966L33.5653 50.4541C33.493 50.6094 33.4646 50.7816 33.4833 50.9519C33.5019 51.1222 33.5669 51.2842 33.6711 51.4202C33.7753 51.5562 33.9148 51.6611 34.0744 51.7234C34.2341 51.7856 34.4078 51.8029 34.5766 51.7733L38.8203 51.0318L40.9846 54.7564C41.0707 54.9045 41.1957 55.0263 41.3461 55.1084C41.4966 55.1904 41.6666 55.2297 41.8377 55.222C42.0089 55.2142 42.1747 55.1597 42.317 55.0643C42.4594 54.9689 42.5729 54.8364 42.6452 54.681L46.4712 46.4628C47.0851 46.2783 47.4571 46.1854 47.7697 46.1854C48.1742 46.1854 48.6765 46.3403 49.677 46.6491C49.7928 46.6849 49.9154 46.7227 50.0439 46.7621L52.7861 53.1305ZM56.4513 47.6255C56.2635 47.5871 56.0684 47.6072 55.8923 47.683C55.7163 47.7588 55.5677 47.8868 55.4665 48.0496L53.7977 50.7391L52.2044 47.0396C53.298 46.8878 54.2989 46.2751 54.9387 45.2965C55.1174 45.0231 55.2752 44.7789 55.4169 44.5596C55.9849 43.6799 56.2699 43.2385 56.5798 42.9783C56.7189 42.8616 56.8937 42.7562 57.1306 42.6386L59.5519 48.2605L56.4513 47.6255ZM41.7026 52.2614L40.1125 49.5248C40.0162 49.3591 39.8714 49.2269 39.6976 49.146C39.5238 49.0651 39.3294 49.0394 39.1406 49.0723L36.0227 49.617L39.067 43.0784C39.339 43.3487 39.62 43.7834 40.1212 44.5597C40.2798 44.8058 40.4392 45.0514 40.5993 45.2965C41.3903 46.5063 42.7325 47.158 44.12 47.0691L41.7026 52.2614ZM47.769 44.3095C47.131 44.3095 46.4928 44.4922 45.3087 44.8576C45.0325 44.943 44.7561 45.0277 44.4794 45.1115C43.5868 45.381 42.6793 45.0513 42.1685 44.2703C41.9919 44.0005 41.8361 43.7592 41.6963 43.5426C40.3518 41.4606 40.211 41.3425 37.9271 40.3801C37.6896 40.28 37.4249 40.1684 37.1285 40.0414C36.2708 39.674 35.7881 38.838 35.8988 37.9115C35.9371 37.5912 35.9729 37.3061 36.005 37.0503C36.3133 34.5915 36.2813 34.4103 35.1503 32.2048C35.0182 31.9477 34.8869 31.6902 34.7564 31.4323C34.3354 30.5996 34.5031 29.649 35.1835 29.0104C35.4187 28.7898 35.6292 28.5945 35.8182 28.4191C37.6352 26.7336 37.7271 26.5743 38.2783 24.1583C38.3356 23.9068 38.3995 23.6268 38.4731 23.3126C38.6858 22.4042 39.4253 21.7837 40.357 21.7319C40.679 21.714 40.9658 21.6997 41.2233 21.6869C43.6986 21.5636 43.8715 21.5007 45.8469 20.0041C46.0524 19.8483 46.2813 19.6749 46.5394 19.4817C47.2865 18.9226 48.2517 18.9226 48.9987 19.4817C49.2569 19.6749 49.4858 19.8483 49.6913 20.0041C51.6666 21.5007 51.8396 21.5636 54.3148 21.6869C54.5723 21.6997 54.8592 21.714 55.1812 21.7319C56.1128 21.7837 56.8523 22.4042 57.0651 23.3126C57.1387 23.6267 57.2026 23.9067 57.2599 24.1581C57.8111 26.5742 57.903 26.7336 59.72 28.419C59.909 28.5944 60.1195 28.7896 60.3547 29.0103C61.0351 29.6489 61.2025 30.5995 60.7817 31.4322C60.6511 31.6903 60.5197 31.9479 60.3875 32.2051C59.2567 34.4103 59.2248 34.5915 59.5332 37.0505C59.5652 37.3064 59.601 37.5912 59.6392 37.9114C59.75 38.8379 59.2673 39.674 58.4096 40.0413C58.1131 40.1682 57.8485 40.2797 57.611 40.3799C55.3272 41.3424 55.1864 41.4606 53.8419 43.5425C53.6853 43.7856 53.5279 44.0282 53.3697 44.2703C52.8591 45.0512 51.9523 45.3815 51.0588 45.1115C50.7501 45.0182 50.4758 44.9335 50.2294 44.8576C49.0451 44.4922 48.4069 44.3095 47.769 44.3095ZM57.0733 32.1335C57.0733 27.003 52.8994 22.8291 47.769 22.8291C42.6386 22.8291 38.4647 27.003 38.4647 32.1335C38.4647 37.2639 42.6386 41.4379 47.769 41.4379C52.8993 41.4379 57.0733 37.264 57.0733 32.1335ZM47.7689 39.5629C43.6723 39.5629 40.3396 36.2301 40.3396 32.1335C40.3396 28.0369 43.6723 24.7041 47.7689 24.7041C51.8654 24.7041 55.1982 28.0369 55.1982 32.1335C55.1983 36.2301 51.8654 39.5629 47.7689 39.5629ZM52.9178 29.923L46.516 35.7328C46.3437 35.8895 46.1191 35.9763 45.8861 35.976C45.763 35.9762 45.641 35.952 45.5272 35.9049C45.4134 35.8578 45.3101 35.7886 45.2231 35.7015L42.5873 33.0657C42.4994 32.9788 42.4295 32.8754 42.3817 32.7615C42.3339 32.6475 42.3091 32.5252 42.3087 32.4016C42.3083 32.278 42.3324 32.1556 42.3795 32.0413C42.4267 31.927 42.4959 31.8232 42.5833 31.7359C42.6707 31.6485 42.7745 31.5792 42.8888 31.5321C43.003 31.485 43.1255 31.4609 43.2491 31.4613C43.3727 31.4617 43.495 31.4865 43.6089 31.5343C43.7229 31.5821 43.8263 31.652 43.9131 31.7399L45.9174 33.7442L51.6578 28.5346C51.8425 28.3713 52.0841 28.2874 52.3303 28.3009C52.5764 28.3144 52.8074 28.4244 52.973 28.6069C53.1387 28.7895 53.2258 29.0299 53.2155 29.2763C53.2052 29.5226 53.0982 29.7549 52.9178 29.923ZM70.7157 60.6397C71.9514 59.4042 72.579 57.8455 72.5306 56.1321L72.074 40.0149C72.029 38.4234 70.4467 36.9973 68.7406 36.9973C68.7242 36.9973 68.7079 36.9974 68.6916 36.9977C67.8592 37.011 65.1453 37.4594 65.165 42.6687L65.1984 51.4237C65.1995 51.619 65.1868 51.8142 65.1605 52.0078C65.0932 51.9274 65.0224 51.8501 64.9482 51.7761C63.7911 50.6191 61.8962 50.6044 60.634 51.7427C60.6026 51.7709 60.5731 51.8013 60.5459 51.8335C59.1337 53.5032 57.3985 54.9657 56.0041 56.1407C55.5151 56.5529 55.0533 56.9421 54.6741 57.2838C53.084 58.717 52.8718 60.6917 52.8739 62.4343L52.8814 68.6694L52.0729 68.6624C51.5255 68.6574 51.0097 68.8671 50.6183 69.2517C50.2269 69.6364 50.0087 70.1494 50.004 70.6961L49.983 73.135C49.9783 73.6817 50.1876 74.1984 50.5723 74.5898C50.9569 74.9812 51.47 75.1993 52.0167 75.204L64.6865 75.3128L64.7044 75.313C65.2444 75.313 65.7541 75.104 66.1412 74.7235C66.5326 74.3388 66.7506 73.8258 66.7553 73.2792L66.7763 70.8403C66.781 70.2936 66.5717 69.7769 66.187 69.3855C65.8024 68.9941 65.2893 68.776 64.7426 68.7713L63.7003 68.7624V67.6551L70.7157 60.6397ZM64.9013 70.8242L64.8803 73.2631C64.8799 73.3219 64.8509 73.3627 64.8267 73.3865C64.8107 73.4032 64.7914 73.4165 64.77 73.4253C64.7486 73.4342 64.7256 73.4386 64.7024 73.4381L52.0326 73.3292C51.9739 73.3287 51.9331 73.2998 51.9093 73.2755C51.8855 73.2513 51.8573 73.2101 51.8579 73.1513L51.8788 70.7124C51.8793 70.6536 51.9083 70.6128 51.9325 70.589C51.9564 70.5655 51.9972 70.5374 52.055 70.5374H52.0567L64.7266 70.6463C64.7732 70.6473 64.8175 70.6665 64.8501 70.6997C64.8828 70.7329 64.9011 70.7776 64.9013 70.8242ZM54.7564 68.6856L54.7489 62.4322C54.7465 60.5226 55.0886 59.4346 55.9296 58.6767C56.2855 58.3558 56.7149 57.9938 57.2123 57.5747C58.6457 56.3665 60.4264 54.866 61.9312 53.0991C62.4575 52.6577 63.176 52.6557 63.6223 53.1021C64.0974 53.577 64.098 54.1421 63.6263 54.7817C62.8809 55.6196 62.0971 56.3786 61.2678 57.1811C60.8697 57.5664 60.4579 57.9649 60.0426 58.3803C59.9556 58.4674 59.8865 58.5707 59.8394 58.6844C59.7923 58.7982 59.7681 58.9201 59.7681 59.0432C59.7681 59.1663 59.7923 59.2882 59.8395 59.4019C59.8866 59.5157 59.9557 59.619 60.0427 59.706C60.2258 59.8891 60.4655 59.9806 60.7055 59.9806C60.9455 59.9806 61.1855 59.8891 61.3685 59.7059C61.7729 59.3015 62.1789 58.9085 62.5717 58.5284C63.4382 57.6899 64.2565 56.898 65.0582 55.9935C65.0624 55.9887 65.6861 55.2258 65.6861 55.2258C66.6249 54.0701 67.0787 52.8241 67.0734 51.4168L67.04 42.6617C67.0312 40.3413 67.6756 38.8893 68.7216 38.8726L68.7406 38.8724C69.4368 38.8724 70.1832 39.4812 70.1997 40.0681L70.6563 56.1853C70.6903 57.3871 70.2642 58.4398 69.3898 59.3139L62.0998 66.6039C61.924 66.7797 61.8253 67.0181 61.8253 67.2667V68.7464L54.7564 68.6856ZM52.7807 71.6658C52.8165 71.572 52.8706 71.4861 52.9398 71.4133C53.009 71.3405 53.0921 71.2822 53.184 71.2418C53.276 71.2014 53.3751 71.1796 53.4755 71.1778C53.576 71.1761 53.6758 71.1942 53.7691 71.2314C53.8625 71.2685 53.9475 71.3238 54.0193 71.3941C54.0911 71.4644 54.1482 71.5482 54.1873 71.6408C54.2264 71.7333 54.2467 71.8327 54.247 71.9332C54.2473 72.0337 54.2277 72.1332 54.1892 72.226C54.1129 72.4099 53.9674 72.5565 53.7839 72.6339C53.6005 72.7114 53.394 72.7136 53.2089 72.64C53.0239 72.5664 52.8753 72.423 52.7951 72.2407C52.715 72.0584 52.7098 71.8519 52.7807 71.6658ZM42.4646 69.2519C42.273 69.0625 42.0459 68.9129 41.7962 68.8117C41.5465 68.7106 41.2792 68.6599 41.0098 68.6627L40.2015 68.6696L40.209 62.4345C40.2111 60.6918 39.9989 58.7171 38.4087 57.284C38.0297 56.9422 37.5678 56.5531 37.0789 56.1411C35.6846 54.9659 33.9493 53.5034 32.5371 51.8337C32.5098 51.8015 32.4804 51.7711 32.449 51.7429C31.1864 50.6047 29.2913 50.6194 28.1348 51.7763C28.0606 51.8503 27.9897 51.9276 27.9224 52.008C27.8961 51.8145 27.8834 51.6193 27.8846 51.424L27.918 42.6689C27.9377 37.4595 25.2237 37.0113 24.3914 36.9978C24.375 36.9976 24.3587 36.9974 24.3424 36.9974C22.6362 36.9974 21.0539 38.4236 21.009 40.015L20.5524 56.1323C20.504 57.8457 21.1315 59.4043 22.3672 60.6398L29.3826 67.6553V68.7626L28.3402 68.7715C27.7935 68.7762 27.2805 68.9943 26.8959 69.3857C26.5112 69.7771 26.3019 70.2938 26.3065 70.8405L26.3275 73.2794C26.3322 73.8261 26.5503 74.339 26.9417 74.7237C27.3288 75.1042 27.8383 75.3132 28.3784 75.3132L28.3964 75.3131L41.0662 75.2042C41.6129 75.1995 42.1259 74.9814 42.5105 74.59C42.8953 74.1986 43.1046 73.6819 43.0999 73.1353L43.0789 70.6964C43.0743 70.1497 42.856 69.6366 42.4646 69.2519ZM31.2576 67.2667C31.2576 67.1436 31.2334 67.0218 31.1862 66.908C31.1391 66.7943 31.0701 66.691 30.983 66.6039L23.6929 59.3138C22.8187 58.4397 22.3926 57.3871 22.4266 56.1853L22.8831 40.068C22.8999 39.4757 23.6646 38.8624 24.3612 38.8726C25.4073 38.8893 26.0517 40.3413 26.0429 42.6616L26.0095 51.4168C26.0042 52.8241 26.458 54.07 27.3984 55.2278L28.0003 55.9647C28.0044 55.9698 28.0205 55.9887 28.0248 55.9935C28.8264 56.898 29.6448 57.6899 30.5112 58.5284C30.904 58.9086 31.31 59.3015 31.7145 59.7059C31.8015 59.7931 31.9048 59.8623 32.0186 59.9094C32.1323 59.9566 32.2543 59.9808 32.3774 59.9806C32.5006 59.9808 32.6225 59.9566 32.7363 59.9095C32.85 59.8624 32.9533 59.7932 33.0403 59.706C33.1273 59.619 33.1964 59.5157 33.2435 59.4019C33.2906 59.2882 33.3149 59.1663 33.3149 59.0432C33.3149 58.9201 33.2907 58.7982 33.2436 58.6844C33.1965 58.5707 33.1274 58.4674 33.0404 58.3803C32.6251 57.965 32.2133 57.5664 31.8152 57.1811C30.9858 56.3785 30.2021 55.6196 29.4567 54.7817C28.9851 54.1422 28.9856 53.5771 29.4606 53.1022C29.9073 52.6557 30.6255 52.6577 31.1519 53.0991C32.6566 54.8661 34.4371 56.3667 35.8708 57.5749C36.368 57.994 36.7975 58.3559 37.1535 58.6769C37.9944 59.4346 38.3364 60.5227 38.3341 62.4323L38.3266 68.6858L31.2577 68.7465L31.2576 67.2667ZM41.1734 73.2756C41.1575 73.2924 41.1384 73.3057 41.1172 73.315C41.096 73.3242 41.0732 73.3291 41.0501 73.3293L28.3803 73.4382C28.3572 73.4384 28.3343 73.4339 28.3129 73.425C28.2916 73.4162 28.2723 73.4031 28.2561 73.3866C28.2393 73.3707 28.2259 73.3516 28.2167 73.3304C28.2075 73.3092 28.2026 73.2863 28.2024 73.2632L28.1814 70.8243C28.1808 70.7655 28.2091 70.7242 28.2329 70.7001C28.2567 70.676 28.2974 70.6469 28.3562 70.6464L41.0259 70.5376H41.0276C41.0855 70.5376 41.1263 70.5656 41.1502 70.5891C41.1745 70.6129 41.2034 70.6537 41.2039 70.7125L41.2249 73.1514C41.2255 73.2103 41.1972 73.2514 41.1734 73.2756ZM40.3021 71.6658C40.3397 71.7585 40.3586 71.8576 40.3577 71.9576C40.3568 72.0575 40.3361 72.1563 40.2968 72.2482C40.2576 72.3401 40.2006 72.4234 40.129 72.4932C40.0575 72.563 39.9728 72.6179 39.8799 72.6549C39.7871 72.6918 39.6878 72.71 39.5878 72.7084C39.4879 72.7069 39.3893 72.6855 39.2976 72.6457C39.2059 72.6058 39.1231 72.5482 39.0538 72.4762C38.9845 72.4041 38.9301 72.3191 38.8938 72.226C38.8211 72.0396 38.8251 71.8319 38.9049 71.6484C38.9847 71.4649 39.1338 71.3204 39.3198 71.2465C39.5057 71.1725 39.7133 71.1751 39.8974 71.2537C40.0814 71.3322 40.2269 71.4804 40.3021 71.6658Z" fill="#3657C3"/>
</svg>
