<svg width="92" height="93" viewBox="0 0 92 93" fill="none" xmlns="http://www.w3.org/2000/svg">
<rect x="0.5" y="0.751465" width="91" height="91" rx="7.5" fill="#F7F9FF"/>
<rect x="0.5" y="0.751465" width="91" height="91" rx="7.5" stroke="#87A5EF"/>
<path d="M46 61.2515C44.5166 61.2515 43.0666 60.8116 41.8332 59.9875C40.5999 59.1634 39.6386 57.992 39.0709 56.6216C38.5032 55.2511 38.3547 53.7431 38.6441 52.2883C38.9335 50.8334 39.6478 49.4971 40.6967 48.4482C41.7456 47.3993 43.082 46.685 44.5368 46.3956C45.9917 46.1062 47.4997 46.2547 48.8701 46.8224C50.2406 47.39 51.4119 48.3513 52.236 49.5847C53.0601 50.8181 53.5 52.2681 53.5 53.7515C53.4978 55.7399 52.7069 57.6463 51.3008 59.0523C49.8948 60.4583 47.9884 61.2492 46 61.2515ZM46 48.1265C44.8875 48.1265 43.7999 48.4564 42.8749 49.0745C41.9499 49.6925 41.2289 50.571 40.8032 51.5989C40.3774 52.6267 40.266 53.7577 40.4831 54.8489C40.7001 55.94 41.2359 56.9423 42.0225 57.7289C42.8092 58.5156 43.8115 59.0513 44.9026 59.2684C45.9938 59.4854 47.1248 59.374 48.1526 58.9483C49.1804 58.5225 50.0589 57.8016 50.677 56.8765C51.2951 55.9515 51.625 54.864 51.625 53.7515C51.6235 52.2601 51.0304 50.8302 49.9758 49.7756C48.9213 48.7211 47.4914 48.128 46 48.1265ZM57.25 73.439C57.0014 73.439 56.7629 73.3402 56.5871 73.1644C56.4113 72.9886 56.3125 72.7501 56.3125 72.5015V66.8765C56.3125 65.9221 52.6722 64.064 46 64.064C39.3278 64.064 35.6875 65.9221 35.6875 66.8765V72.5015C35.6875 72.7501 35.5887 72.9886 35.4129 73.1644C35.2371 73.3402 34.9986 73.439 34.75 73.439C34.5014 73.439 34.2629 73.3402 34.0871 73.1644C33.9113 72.9886 33.8125 72.7501 33.8125 72.5015V66.8765C33.8125 63.7987 39.9437 62.189 46 62.189C52.0563 62.189 58.1875 63.7987 58.1875 66.8765V72.5015C58.1875 72.7501 58.0887 72.9886 57.9129 73.1644C57.7371 73.3402 57.4986 73.439 57.25 73.439ZM61.9375 56.564C60.4541 56.564 59.0041 56.1241 57.7707 55.3C56.5374 54.4759 55.5761 53.3045 55.0084 51.9341C54.4407 50.5636 54.2922 49.0556 54.5816 47.6008C54.871 46.1459 55.5853 44.8096 56.6342 43.7607C57.6831 42.7118 59.0195 41.9975 60.4743 41.7081C61.9292 41.4187 63.4372 41.5672 64.8076 42.1349C66.1781 42.7025 67.3494 43.6638 68.1735 44.8972C68.9976 46.1306 69.4375 47.5806 69.4375 49.064C69.4353 51.0524 68.6444 52.9588 67.2383 54.3648C65.8323 55.7708 63.9259 56.5617 61.9375 56.564ZM61.9375 43.439C60.825 43.439 59.7374 43.7689 58.8124 44.387C57.8874 45.005 57.1664 45.8835 56.7407 46.9114C56.3149 47.9392 56.2035 49.0702 56.4206 50.1614C56.6376 51.2525 57.1734 52.2548 57.96 53.0414C58.7467 53.8281 59.749 54.3638 60.8401 54.5809C61.9313 54.7979 63.0623 54.6865 64.0901 54.2608C65.1179 53.835 65.9964 53.1141 66.6145 52.1891C67.2326 51.264 67.5625 50.1765 67.5625 49.064C67.561 47.5726 66.9679 46.1427 65.9133 45.0881C64.8588 44.0336 63.4289 43.4405 61.9375 43.439Z" fill="#3657C3"/>
<path d="M73.1875 68.7515C72.9389 68.7515 72.7004 68.6527 72.5246 68.4769C72.3488 68.3011 72.25 68.0626 72.25 67.814V62.189C72.25 61.2346 68.6097 59.3765 61.9375 59.3765C58.0938 59.3765 54.5312 60.0468 52.6562 61.1258C52.5496 61.1884 52.4316 61.2292 52.3091 61.2459C52.1866 61.2627 52.062 61.255 51.9425 61.2234C51.823 61.1918 51.7109 61.1369 51.6126 61.0618C51.5144 60.9867 51.432 60.8929 51.3702 60.7858C51.3084 60.6787 51.2684 60.5605 51.2524 60.4379C51.2365 60.3153 51.245 60.1907 51.2774 60.0714C51.3098 59.9521 51.3654 59.8404 51.4412 59.7427C51.5169 59.645 51.6113 59.5632 51.7187 59.5021C53.8984 58.2515 57.7188 57.5015 61.9375 57.5015C67.9938 57.5015 74.125 59.1111 74.125 62.189V67.814C74.125 68.0626 74.0262 68.3011 73.8504 68.4769C73.6746 68.6527 73.4361 68.7515 73.1875 68.7515ZM30.0625 56.564C28.5791 56.564 27.1291 56.1241 25.8957 55.3C24.6624 54.4759 23.7011 53.3045 23.1334 51.9341C22.5657 50.5636 22.4172 49.0556 22.7066 47.6008C22.996 46.1459 23.7103 44.8095 24.7592 43.7607C25.8081 42.7118 27.1445 41.9975 28.5993 41.7081C30.0542 41.4187 31.5622 41.5672 32.9326 42.1349C34.3031 42.7025 35.4744 43.6638 36.2985 44.8972C37.1226 46.1305 37.5625 47.5806 37.5625 49.064C37.5603 51.0524 36.7694 52.9588 35.3633 54.3648C33.9573 55.7708 32.0509 56.5617 30.0625 56.564ZM30.0625 43.439C28.95 43.439 27.8624 43.7689 26.9374 44.3869C26.0124 45.005 25.2914 45.8835 24.8657 46.9114C24.4399 47.9392 24.3285 49.0702 24.5456 50.1613C24.7626 51.2525 25.2984 52.2548 26.085 53.0414C26.8717 53.8281 27.874 54.3638 28.9651 54.5809C30.0563 54.7979 31.1873 54.6865 32.2151 54.2608C33.2429 53.835 34.1214 53.1141 34.7395 52.189C35.3576 51.264 35.6875 50.1765 35.6875 49.064C35.686 47.5726 35.0929 46.1427 34.0383 45.0881C32.9838 44.0336 31.5539 43.4404 30.0625 43.439ZM18.8125 68.7515C18.5639 68.7515 18.3254 68.6527 18.1496 68.4769C17.9738 68.3011 17.875 68.0626 17.875 67.814V62.189C17.875 59.1111 24.0062 57.5015 30.0625 57.5015C34.2812 57.5015 38.1016 58.2515 40.2756 59.5021C40.3831 59.5632 40.4774 59.645 40.5532 59.7427C40.6289 59.8404 40.6846 59.9521 40.717 60.0714C40.7494 60.1907 40.7579 60.3153 40.7419 60.4379C40.726 60.5605 40.686 60.6787 40.6242 60.7858C40.5623 60.8929 40.4799 60.9867 40.3817 61.0618C40.2835 61.1369 40.1714 61.1918 40.0519 61.2234C39.9324 61.255 39.8078 61.2627 39.6853 61.2459C39.5628 61.2292 39.4448 61.1884 39.3381 61.1258C37.4687 60.0468 33.9109 59.3765 30.0625 59.3765C23.3903 59.3765 19.75 61.2346 19.75 62.189V67.814C19.75 68.0626 19.6512 68.3011 19.4754 68.4769C19.2996 68.6527 19.0611 68.7515 18.8125 68.7515ZM46 38.7515C45.8146 38.7514 45.6334 38.6964 45.4793 38.5934C45.3251 38.4904 45.205 38.344 45.1341 38.1727C45.0631 38.0014 45.0445 37.8129 45.0807 37.6311C45.1169 37.4493 45.2061 37.2823 45.3372 37.1511L59.4662 23.0221C59.6431 22.8513 59.8799 22.7568 60.1257 22.7589C60.3715 22.7611 60.6066 22.8597 60.7805 23.0335C60.9543 23.2073 61.0529 23.4425 61.055 23.6883C61.0571 23.9341 60.9626 24.1709 60.7919 24.3477L46.6628 38.4768C46.487 38.6526 46.2486 38.7514 46 38.7515Z" fill="#3657C3"/>
<path d="M59.125 30.3139C59.0482 30.3138 58.9717 30.3044 58.8972 30.2858L55.1472 29.3483C54.9863 29.3079 54.839 29.2257 54.7204 29.1098C54.6017 28.994 54.5159 28.8488 54.4716 28.6889C54.4274 28.5291 54.4264 28.3604 54.4686 28.2C54.5109 28.0397 54.5949 27.8934 54.7122 27.7761L59.3997 23.0886C59.5142 22.9741 59.6564 22.8912 59.8125 22.8479C59.9686 22.8047 60.1332 22.8027 60.2903 22.842L64.0403 23.7795C64.2012 23.8199 64.3485 23.9021 64.4671 24.018C64.5858 24.1338 64.6717 24.2791 64.7159 24.4389C64.7601 24.5987 64.7611 24.7674 64.7189 24.9278C64.6766 25.0882 64.5926 25.2344 64.4753 25.3517L59.7878 30.0392C59.612 30.215 59.3736 30.3139 59.125 30.3139ZM57.2088 27.9308L58.8372 28.3386L61.9788 25.197L60.3503 24.7892L57.2088 27.9308Z" fill="#3657C3"/>
<path d="M55.375 29.3764C55.2904 29.3763 55.2063 29.365 55.1247 29.3427C54.9654 29.2979 54.8207 29.2118 54.7055 29.0931C54.5902 28.9744 54.5084 28.8273 54.4684 28.6667L53.5309 24.9167C53.4916 24.7596 53.4936 24.595 53.5369 24.4389C53.5801 24.2828 53.663 24.1406 53.7775 24.0261L58.465 19.3386C58.5823 19.2213 58.7286 19.1373 58.8889 19.095C59.0493 19.0528 59.218 19.0538 59.3778 19.098C59.5377 19.1423 59.6829 19.2281 59.7987 19.3468C59.9146 19.4655 59.9969 19.6127 60.0372 19.7736L60.9747 23.5236C61.014 23.6807 61.012 23.8453 60.9688 24.0014C60.9256 24.1575 60.8426 24.2997 60.7281 24.4142L56.0406 29.1017C55.9533 29.1891 55.8495 29.2584 55.7352 29.3055C55.621 29.3527 55.4986 29.3768 55.375 29.3764ZM55.4753 24.9767L55.8831 26.6052L59.0247 23.4636L58.6169 21.8352L55.4753 24.9767ZM30.1703 40.6264C29.9407 40.6261 29.7192 40.5416 29.5478 40.3888C29.3763 40.2361 29.2669 40.0257 29.2403 39.7977C29.1638 39.1392 29.1253 38.4768 29.125 37.8139C29.1264 34.9939 29.8342 32.2192 31.1836 29.7431C32.5331 27.267 34.4812 25.1683 36.8503 23.6386C39.2193 22.109 41.9338 21.1971 44.7459 20.9862C47.5579 20.7754 50.3781 21.2722 52.9487 22.4314C53.1754 22.5338 53.352 22.7221 53.4399 22.9548C53.5277 23.1875 53.5195 23.4456 53.417 23.6722C53.3146 23.8988 53.1263 24.0755 52.8936 24.1633C52.6609 24.2511 52.4029 24.2429 52.1762 24.1405C49.8912 23.1101 47.3845 22.6686 44.8849 22.8561C42.3853 23.0436 39.9725 23.8542 37.8668 25.2139C35.761 26.5735 34.0293 28.439 32.8298 30.64C31.6304 32.841 31.0013 35.3073 31 37.8139C31.0002 38.4041 31.0343 38.9939 31.1022 39.5802C31.131 39.827 31.0605 40.0753 30.9063 40.2702C30.7522 40.4652 30.5269 40.5909 30.28 40.6198C30.2436 40.6244 30.207 40.6266 30.1703 40.6264ZM61.8297 40.6264C61.793 40.6266 61.7564 40.6244 61.72 40.6198C61.4731 40.5909 61.2478 40.4652 61.0937 40.2702C60.9395 40.0753 60.869 39.827 60.8978 39.5802C60.9657 38.9939 60.9998 38.4041 61 37.8139C61.005 35.6839 60.5526 33.5777 59.6734 31.6377C59.6227 31.5254 59.5946 31.4043 59.5907 31.2812C59.5868 31.1582 59.6071 31.0355 59.6506 30.9203C59.6941 30.8051 59.7598 30.6995 59.8441 30.6097C59.9284 30.5199 60.0295 30.4476 60.1417 30.3969C60.3684 30.2944 60.6264 30.2862 60.8591 30.374C60.9743 30.4175 61.0798 30.4833 61.1696 30.5675C61.2594 30.6518 61.3318 30.7529 61.3825 30.8652C62.3713 33.048 62.8803 35.4176 62.875 37.8139C62.8746 38.4768 62.8361 39.1392 62.7597 39.7977C62.7331 40.0257 62.6237 40.2361 62.4522 40.3888C62.2808 40.5416 62.0593 40.6261 61.8297 40.6264ZM46 43.4389C44.8875 43.4389 43.7999 43.109 42.8749 42.4909C41.9499 41.8728 41.2289 40.9943 40.8032 39.9665C40.3774 38.9387 40.266 37.8077 40.4831 36.7165C40.7001 35.6254 41.2359 34.6231 42.0225 33.8364C42.8092 33.0498 43.8115 32.514 44.9026 32.297C45.9938 32.0799 47.1248 32.1913 48.1526 32.6171C49.1804 33.0428 50.0589 33.7638 50.677 34.6888C51.2951 35.6138 51.625 36.7014 51.625 37.8139C51.6235 39.3053 51.0304 40.7352 49.9758 41.7897C48.9213 42.8443 47.4914 43.4374 46 43.4389ZM46 34.0639C45.2583 34.0639 44.5333 34.2838 43.9166 34.6959C43.2999 35.108 42.8193 35.6936 42.5355 36.3788C42.2516 37.0641 42.1774 37.8181 42.3221 38.5455C42.4667 39.2729 42.8239 39.9411 43.3483 40.4656C43.8728 40.99 44.541 41.3472 45.2684 41.4919C45.9958 41.6365 46.7498 41.5623 47.4351 41.2785C48.1203 40.9946 48.706 40.514 49.118 39.8973C49.5301 39.2806 49.75 38.5556 49.75 37.8139C49.75 36.8193 49.3549 35.8655 48.6516 35.1623C47.9484 34.459 46.9946 34.0639 46 34.0639Z" fill="#3657C3"/>
<path d="M51.9241 47.1889C51.7247 47.1892 51.5304 47.126 51.3694 47.0084C51.2084 46.8908 51.0891 46.725 51.0288 46.535C50.9685 46.3449 50.9703 46.1406 51.0341 45.9517C51.0978 45.7628 51.22 45.5992 51.3831 45.4845C53.015 44.34 54.2396 42.7052 54.8792 40.8175C55.5188 38.9297 55.5401 36.8872 54.94 34.9865C54.3399 33.0858 53.1497 31.4258 51.5421 30.2476C49.9345 29.0693 47.9932 28.434 46 28.434C44.0068 28.434 42.0655 29.0693 40.4579 30.2476C38.8503 31.4258 37.6601 33.0858 37.06 34.9865C36.4599 36.8872 36.4812 38.9297 37.1208 40.8175C37.7604 42.7052 38.985 44.34 40.6169 45.4845C40.7176 45.5554 40.8033 45.6455 40.8692 45.7495C40.9351 45.8536 40.9799 45.9696 41.001 46.0909C41.022 46.2123 41.019 46.3366 40.992 46.4568C40.965 46.577 40.9147 46.6907 40.8438 46.7914C40.7728 46.8921 40.6828 46.9778 40.5787 47.0437C40.4747 47.1096 40.3587 47.1544 40.2373 47.1755C40.1159 47.1965 39.9916 47.1935 39.8715 47.1665C39.7513 47.1395 39.6376 47.0891 39.5369 47.0182C37.5795 45.6443 36.1108 43.6824 35.344 41.4172C34.5772 39.152 34.5522 36.7014 35.2726 34.4211C35.993 32.1407 37.4213 30.1492 39.3503 28.7357C41.2793 27.3221 43.6085 26.5601 46 26.5601C48.3915 26.5601 50.7207 27.3221 52.6497 28.7357C54.5787 30.1492 56.007 32.1407 56.7274 34.4211C57.4478 36.7014 57.4228 39.152 56.656 41.4172C55.8892 43.6824 54.4205 45.6443 52.4631 47.0182C52.3053 47.1292 52.117 47.1888 51.9241 47.1889Z" fill="#3657C3"/>
</svg>
