<svg width="92" height="93" viewBox="0 0 92 93" fill="none" xmlns="http://www.w3.org/2000/svg">
<rect x="0.5" y="0.751465" width="91" height="91" rx="7.5" fill="#F7F9FF"/>
<rect x="0.5" y="0.751465" width="91" height="91" rx="7.5" stroke="#87A5EF"/>
<g clip-path="url(#clip0_15_31)">
<path d="M57.5635 37.4408H54.9017C54.7394 36.9255 54.5324 36.4254 54.2829 35.9463L56.165 34.0641C56.281 33.9487 56.3729 33.8115 56.4355 33.6603C56.4981 33.5091 56.5301 33.3471 56.5296 33.1834C56.5296 32.8506 56.4002 32.5379 56.165 32.3027L53.95 30.0876C53.4644 29.6023 52.6743 29.6021 52.1886 30.0877L50.3064 31.9699C49.8273 31.7204 49.3272 31.5133 48.8119 31.3511V28.6892C48.8118 28.0025 48.253 27.4436 47.5662 27.4436H44.4337C43.747 27.4436 43.1882 28.0024 43.1882 28.6892V31.3511C42.6729 31.5134 42.1728 31.7204 41.6936 31.9699L39.8113 30.0876C39.3257 29.6022 38.5356 29.6023 38.05 30.0877L35.8352 32.3025C35.7191 32.4179 35.6271 32.5552 35.5644 32.7064C35.5018 32.8576 35.4698 33.0197 35.4702 33.1833C35.4702 33.516 35.5998 33.8288 35.835 34.064L37.7172 35.9461C37.4677 36.4253 37.2607 36.9254 37.0984 37.4406H34.4365C33.7498 37.4406 33.1911 37.9994 33.1911 38.6862V41.8188C33.1911 42.5055 33.7498 43.0642 34.4365 43.0642H37.0984C37.2607 43.5795 37.4677 44.0796 37.7172 44.5587L35.835 46.4409C35.3494 46.9265 35.3494 47.7167 35.835 48.2023L38.05 50.4173C38.5356 50.903 39.3259 50.9029 39.8114 50.4173L41.6936 48.5351C42.1728 48.7846 42.6729 48.9916 43.1882 49.1539V51.8158C43.1882 52.5025 43.747 53.0613 44.4337 53.0613H47.5662C48.2529 53.0613 48.8118 52.5025 48.8118 51.8158V49.1539C49.3271 48.9916 49.8271 48.7846 50.3063 48.5351L52.1884 50.4173C52.6742 50.903 53.4644 50.9029 53.95 50.4173L56.1648 48.2023C56.2808 48.0869 56.3728 47.9497 56.4354 47.7985C56.498 47.6473 56.53 47.4853 56.5295 47.3217C56.5295 46.989 56.4 46.6762 56.1648 46.4409L54.2827 44.5587C54.5322 44.0796 54.7392 43.5795 54.9014 43.0642H57.5634C58.2501 43.0642 58.8089 42.5055 58.8089 41.8188V38.6862C58.8091 37.9995 58.2502 37.4408 57.5635 37.4408ZM57.0514 41.3064H54.232C54.0336 41.3064 53.8412 41.3735 53.6858 41.4967C53.5304 41.6199 53.4213 41.7921 53.3761 41.9852C53.1898 42.7838 52.874 43.5465 52.4412 44.243C52.3366 44.4115 52.292 44.6104 52.3147 44.8074C52.3374 45.0045 52.426 45.188 52.5663 45.3283L54.5597 47.3218L53.0693 48.8122L51.0759 46.8187C50.9356 46.6784 50.752 46.5897 50.555 46.567C50.3579 46.5442 50.159 46.5888 49.9905 46.6935C49.2939 47.1262 48.5313 47.442 47.7327 47.6286C47.5396 47.6737 47.3675 47.7828 47.2442 47.9382C47.121 48.0936 47.054 48.2861 47.054 48.4844V51.3039H44.9464V48.4844C44.9464 48.2861 44.8793 48.0936 44.7561 47.9382C44.6329 47.7829 44.4607 47.6737 44.2676 47.6286C43.469 47.4422 42.7063 47.1264 42.0098 46.6935C41.8413 46.589 41.6423 46.5444 41.4453 46.5671C41.2483 46.5899 41.0648 46.6785 40.9245 46.8187L38.931 48.8122L37.4406 47.3218L39.4341 45.3283C39.5743 45.188 39.663 45.0045 39.6857 44.8075C39.7085 44.6104 39.6639 44.4115 39.5593 44.243C39.1266 43.5464 38.8107 42.7837 38.6243 41.9852C38.5792 41.7921 38.47 41.6199 38.3147 41.4967C38.1593 41.3735 37.9668 41.3064 37.7685 41.3064H34.9491V39.1988H37.7685C37.9668 39.1988 38.1593 39.1317 38.3147 39.0085C38.47 38.8853 38.5792 38.7131 38.6243 38.52C38.8107 37.7215 39.1266 36.9588 39.5593 36.2622C39.6639 36.0937 39.7084 35.8948 39.6857 35.6978C39.663 35.5007 39.5743 35.3172 39.4341 35.1769L37.4406 33.1834L38.931 31.6931L40.9245 33.6865C41.0647 33.8268 41.2483 33.9155 41.4453 33.9382C41.6424 33.9609 41.8413 33.9163 42.0098 33.8117C42.7063 33.3789 43.469 33.0631 44.2676 32.8768C44.4607 32.8316 44.6329 32.7225 44.7561 32.5671C44.8793 32.4117 44.9464 32.2193 44.9464 32.0209V29.2014H47.054V32.0209C47.054 32.2193 47.121 32.4117 47.2443 32.5671C47.3675 32.7225 47.5396 32.8316 47.7327 32.8768C48.5313 33.0632 49.294 33.379 49.9906 33.8117C50.1591 33.9162 50.358 33.9607 50.555 33.938C50.752 33.9153 50.9356 33.8267 51.0759 33.6865L53.0693 31.6931L54.5597 33.1834L52.5663 35.1769C52.426 35.3172 52.3373 35.5007 52.3146 35.6978C52.2919 35.8948 52.3365 36.0937 52.4412 36.2622C52.8739 36.9588 53.1897 37.7215 53.3761 38.52C53.4213 38.7131 53.5304 38.8853 53.6858 39.0085C53.8412 39.1317 54.0336 39.1988 54.232 39.1988H57.0514V41.3064Z" fill="#3657C3"/>
<path d="M46 35.5439C43.4036 35.5439 41.2914 37.6562 41.2914 40.2525C41.2914 42.8488 43.4037 44.9611 46 44.9611C48.5963 44.9611 50.7086 42.8488 50.7086 40.2525C50.7086 37.6562 48.5964 35.5439 46 35.5439ZM46 43.2033C44.373 43.2033 43.0492 41.8796 43.0492 40.2525C43.0492 38.6255 44.373 37.3017 46 37.3017C47.627 37.3017 48.9508 38.6255 48.9508 40.2525C48.9508 41.8796 47.627 43.2033 46 43.2033ZM25.7938 39.3736H22.878C22.6449 39.3736 22.4213 39.4662 22.2565 39.631C22.0916 39.7959 21.9991 40.0194 21.9991 40.2525C21.9991 40.4856 22.0916 40.7092 22.2565 40.874C22.4213 41.0388 22.6449 41.1314 22.878 41.1314H25.7938C26.0269 41.1314 26.2505 41.0388 26.4153 40.874C26.5801 40.7092 26.6727 40.4856 26.6727 40.2525C26.6727 40.0194 26.5801 39.7959 26.4153 39.631C26.2505 39.4662 26.0269 39.3736 25.7938 39.3736ZM69.1221 39.3736H66.2063C65.7208 39.3736 65.3274 39.7671 65.3274 40.2525C65.3274 40.7379 65.7208 41.1314 66.2063 41.1314H69.1221C69.3552 41.1314 69.5788 41.0388 69.7436 40.874C69.9084 40.7092 70.001 40.4856 70.001 40.2525C70.001 40.0194 69.9084 39.7959 69.7436 39.631C69.5788 39.4662 69.3552 39.3736 69.1221 39.3736ZM32.3335 53.919C32.2518 53.8374 32.155 53.7727 32.0483 53.7285C31.9417 53.6843 31.8274 53.6616 31.712 53.6616C31.5965 53.6616 31.4822 53.6843 31.3756 53.7285C31.269 53.7727 31.1721 53.8374 31.0905 53.919L29.0287 55.9808C28.8638 56.1457 28.7712 56.3692 28.7712 56.6023C28.7712 56.8355 28.8638 57.059 29.0287 57.2239C29.1935 57.3887 29.4171 57.4813 29.6502 57.4813C29.8833 57.4813 30.1068 57.3887 30.2717 57.2239L32.3335 55.1621C32.4151 55.0804 32.4798 54.9835 32.524 54.8769C32.5682 54.7703 32.5909 54.656 32.5909 54.5406C32.5909 54.4251 32.5682 54.3108 32.524 54.2042C32.4798 54.0976 32.4151 54.0007 32.3335 53.919ZM62.9713 23.2814C62.8065 23.1166 62.5829 23.024 62.3498 23.024C62.1166 23.024 61.8931 23.1166 61.7282 23.2814L59.6664 25.3432C59.5016 25.5081 59.409 25.7317 59.409 25.9648C59.409 26.1979 59.5016 26.4215 59.6665 26.5863C59.8313 26.7511 60.0549 26.8437 60.288 26.8437C60.5211 26.8437 60.7447 26.7511 60.9095 26.5862L62.9713 24.5244C63.0529 24.4428 63.1177 24.3459 63.1619 24.2393C63.206 24.1327 63.2288 24.0184 63.2288 23.9029C63.2288 23.7875 63.206 23.6732 63.1619 23.5666C63.1177 23.4599 63.0529 23.363 62.9713 23.2814ZM46.0001 16.2516C45.767 16.2516 45.5435 16.3442 45.3786 16.509C45.2138 16.6738 45.1212 16.8974 45.1212 17.1305V20.0464C45.1212 20.5317 45.5146 20.9253 46.0001 20.9253C46.4856 20.9253 46.879 20.5317 46.879 20.0464V17.1305C46.879 16.8974 46.7864 16.6738 46.6216 16.509C46.4568 16.3442 46.2332 16.2516 46.0001 16.2516ZM62.9713 55.9808L60.9095 53.919C60.7436 53.7594 60.5217 53.6711 60.2915 53.6733C60.0612 53.6755 59.841 53.7679 59.6782 53.9307C59.5154 54.0935 59.4229 54.3137 59.4207 54.544C59.4185 54.7742 59.5067 54.9962 59.6664 55.1621L61.7282 57.2239C61.8941 57.3835 62.116 57.4718 62.3462 57.4696C62.5765 57.4674 62.7967 57.375 62.9595 57.2122C63.1223 57.0494 63.2148 56.8292 63.217 56.5989C63.2192 56.3687 63.131 56.1467 62.9713 55.9808ZM32.3335 25.3432L30.2717 23.2814C30.1068 23.1166 29.8833 23.024 29.6502 23.024C29.4171 23.024 29.1935 23.1166 29.0287 23.2814C28.8638 23.4463 28.7712 23.6698 28.7712 23.9029C28.7712 24.136 28.8638 24.3596 29.0287 24.5244L31.0905 26.5862C31.2553 26.7511 31.4789 26.8437 31.712 26.8437C31.9451 26.8437 32.1686 26.7511 32.3335 26.5862C32.4983 26.4214 32.5909 26.1978 32.5909 25.9647C32.5909 25.7316 32.4983 25.5081 32.3335 25.3432ZM63.5346 38.0994C62.5888 30.0281 56.1907 23.6295 48.1573 22.6503C47.6762 22.5911 47.2371 22.9346 47.1783 23.4163C47.1501 23.6477 47.215 23.8809 47.3587 24.0645C47.5024 24.248 47.7131 24.3671 47.9445 24.3953C55.2402 25.2845 60.9332 31.0041 61.7885 38.304C61.8157 38.5356 61.9337 38.7468 62.1166 38.8913C62.2994 39.0359 62.5323 39.1018 62.7638 39.0747C62.8784 39.0613 62.9893 39.0254 63.0901 38.9692C63.1909 38.9129 63.2797 38.8373 63.3513 38.7468C63.4228 38.6562 63.4759 38.5524 63.5073 38.4413C63.5388 38.3303 63.5481 38.2141 63.5346 38.0994Z" fill="#3657C3"/>
<path d="M62.7535 41.4315C62.639 41.4169 62.5227 41.425 62.4113 41.4554C62.2999 41.4858 62.1956 41.5378 62.1044 41.6086C62.0132 41.6793 61.9368 41.7673 61.8796 41.8676C61.8224 41.9679 61.7855 42.0785 61.7711 42.1931C61.172 46.926 58.5005 51.1022 54.4419 53.6505C52.6921 54.7491 51.6477 56.6293 51.6477 58.6798V62.297H40.3528V58.5998C40.3528 56.6142 39.3151 54.7382 37.6448 53.7043C32.9214 50.7804 30.1014 45.723 30.1013 40.1754C30.1013 32.1654 36.1011 25.3819 44.0573 24.3964C44.1719 24.3822 44.2825 24.3456 44.3829 24.2886C44.4833 24.2317 44.5715 24.1555 44.6425 24.0645C44.7134 23.9734 44.7658 23.8693 44.7965 23.758C44.8272 23.6468 44.8357 23.5305 44.8215 23.416C44.7618 22.9343 44.3231 22.5913 43.8411 22.6518C35.0503 23.7408 28.343 31.3006 28.3432 40.1754C28.3432 43.2379 29.1397 46.2552 30.6468 48.9013C32.1078 51.4666 34.2077 53.6442 36.7193 55.1989C37.876 55.9149 38.5945 57.218 38.5945 58.5997V62.425C37.7008 62.7356 37.0564 63.5842 37.0564 64.5823V65.8353C37.0564 66.3658 37.2397 66.8534 37.544 67.2417C37.2396 67.6299 37.0564 68.1174 37.0564 68.648V69.9009C37.0564 71.161 38.0817 72.1861 39.3417 72.1861H42.105V74.1731C42.105 75.3193 43.0374 76.2517 44.1835 76.2517H47.816C48.9622 76.2517 49.8945 75.3193 49.8945 74.1731V72.1861H52.6578C53.9179 72.1861 54.9431 71.1609 54.9431 69.9009V68.648C54.9431 68.1175 54.7598 67.6299 54.4554 67.2417C54.7598 66.8534 54.9431 66.3659 54.9431 65.8353V64.5823C54.9431 63.5841 54.2988 62.7356 53.405 62.425V58.6797C53.405 57.2377 54.1418 55.9142 55.3761 55.1392C59.8824 52.3099 62.8489 47.6716 63.5144 42.4138C63.529 42.2994 63.5209 42.1831 63.4906 42.0718C63.4603 41.9604 63.4083 41.8562 63.3376 41.7649C63.2669 41.6737 63.179 41.5973 63.0788 41.54C62.9785 41.4828 62.868 41.4459 62.7535 41.4315ZM48.137 74.1729C48.137 74.3467 47.9901 74.4937 47.8163 74.4937H44.1839C44.0101 74.4937 43.8632 74.3468 43.8632 74.1729V72.186H48.137V74.1729ZM53.1856 69.9008C53.1856 70.1866 52.9441 70.4281 52.6583 70.4281H39.342C39.0562 70.4281 38.8147 70.1866 38.8147 69.9008V68.6479C38.8147 68.3621 39.0562 68.1206 39.342 68.1206H52.6583C52.9441 68.1206 53.1856 68.3621 53.1856 68.6479V69.9008ZM53.1856 65.8352C53.1856 66.121 52.9441 66.3625 52.6583 66.3625H39.342C39.0562 66.3625 38.8147 66.121 38.8147 65.8352V64.5822C38.8147 64.2964 39.0562 64.0549 39.342 64.0549H52.6583C52.9441 64.0549 53.1856 64.2964 53.1856 64.5822V65.8352Z" fill="#3657C3"/>
</g>
<defs>
<clipPath id="clip0_15_31">
<rect width="60" height="60" fill="white" transform="translate(16 16.2515)"/>
</clipPath>
</defs>
</svg>
